<svg width="70" height="70" viewBox="0 0 70 70" fill="none" xmlns="http://www.w3.org/2000/svg">
<g filter="url(#filter0_i)">
<path d="M48.5882 46.5C48.5882 58.3741 39.8973 68 29.1765 68C18.4556 68 9.76471 58.3741 9.76471 46.5C9.76471 34.6259 18.4556 25 29.1765 25C39.8973 25 48.5882 34.6259 48.5882 46.5Z" fill="white"/>
<path d="M62.1765 46.5C62.1765 52.8329 57.5413 57.9667 51.8235 57.9667C46.1058 57.9667 41.4706 52.8329 41.4706 46.5C41.4706 40.1671 46.1058 35.0333 51.8235 35.0333C57.5413 35.0333 62.1765 40.1671 62.1765 46.5Z" fill="white"/>
<path d="M25.2941 55.1C25.2941 56.8465 43.8013 53.242 51.5822 55.8167C60.8223 58.8742 59.5882 68 59.5882 68C59.5882 68 16.6301 68 13.6471 68C7.21457 68 2 62.2245 2 55.1C2 47.9755 7.21457 42.2 13.6471 42.2C20.0796 42.2 25.2941 47.9755 25.2941 55.1Z" fill="white"/>
<path d="M68 58.6833C68 63.8288 64.2339 68 59.5882 68C54.9425 68 51.1765 63.8288 51.1765 58.6833C51.1765 53.5379 54.9425 49.3667 59.5882 49.3667C64.2339 49.3667 68 53.5379 68 58.6833Z" fill="white"/>
</g>
<g filter="url(#filter1_i)">
<path d="M46.9091 26C40.842 25.7403 36 20.2497 36 13.8636C36 7.31149 41.0971 2 47.3846 2C52.5088 2 56.8422 5.52775 58.2705 10.3797C58.4404 10.9572 59.0437 11.3074 59.6288 11.1658C60.1341 11.0434 60.5716 10.9778 60.9231 10.9778C64.8316 10.9778 68 14.2796 68 18.3525C68 22.4254 64.6357 26 60.7273 26C60.0531 26 57.8182 26 57.8182 26V26C57.8182 26 50.303 26 46.9091 26Z" fill="white"/>
</g>
<defs>
<filter id="filter0_i" x="2" y="22" width="66" height="46" filterUnits="userSpaceOnUse" color-interpolation-filters="sRGB">
<feFlood flood-opacity="0" result="BackgroundImageFix"/>
<feBlend mode="normal" in="SourceGraphic" in2="BackgroundImageFix" result="shape"/>
<feColorMatrix in="SourceAlpha" type="matrix" values="0 0 0 0 0 0 0 0 0 0 0 0 0 0 0 0 0 0 127 0" result="hardAlpha"/>
<feOffset dy="-3"/>
<feGaussianBlur stdDeviation="3.5"/>
<feComposite in2="hardAlpha" operator="arithmetic" k2="-1" k3="1"/>
<feColorMatrix type="matrix" values="0 0 0 0 0.520833 0 0 0 0 0.520833 0 0 0 0 0.520833 0 0 0 0.45 0"/>
<feBlend mode="normal" in2="shape" result="effect1_innerShadow"/>
</filter>
<filter id="filter1_i" x="36" y="-1" width="32" height="27" filterUnits="userSpaceOnUse" color-interpolation-filters="sRGB">
<feFlood flood-opacity="0" result="BackgroundImageFix"/>
<feBlend mode="normal" in="SourceGraphic" in2="BackgroundImageFix" result="shape"/>
<feColorMatrix in="SourceAlpha" type="matrix" values="0 0 0 0 0 0 0 0 0 0 0 0 0 0 0 0 0 0 127 0" result="hardAlpha"/>
<feOffset dy="-3"/>
<feGaussianBlur stdDeviation="4"/>
<feComposite in2="hardAlpha" operator="arithmetic" k2="-1" k3="1"/>
<feColorMatrix type="matrix" values="0 0 0 0 0.520833 0 0 0 0 0.520833 0 0 0 0 0.520833 0 0 0 0.45 0"/>
<feBlend mode="normal" in2="shape" result="effect1_innerShadow"/>
</filter>
</defs>
</svg>
