<svg width="70" height="70" viewBox="0 0 70 70" fill="none" xmlns="http://www.w3.org/2000/svg">
<g filter="url(#filter0_ii)">
<path d="M33.4706 67.0376C32.6439 66.5145 32.1429 65.6044 32.1429 64.6261V61.594C32.1429 59.7594 30.1584 58.6105 28.5653 59.5204V59.5204C27.814 59.9495 26.8882 59.9381 26.1482 59.4899V59.4899C25.4354 59.0581 25 58.2853 25 57.4519V57.2823C25 56.3217 25.5134 55.4344 26.3463 54.9557L30.9086 52.3332C31.6721 51.8943 32.1429 51.0808 32.1429 50.2001V49.2098C32.1429 47.7435 30.5487 46.8329 29.2857 47.5778L29.1421 47.6625C27.9426 48.37 26.4286 47.5052 26.4286 46.1125V46.1125C26.4286 44.7724 25.0162 43.9025 23.8194 44.5055L22.2858 45.2783C21.3222 45.7638 20.7143 46.7508 20.7143 47.8298V53.1295C20.7143 53.8682 20.358 54.5615 19.7575 54.9916L19.5707 55.1254C18.8498 55.6417 17.8741 55.6176 17.1797 55.0663V55.0663C16.7052 54.6896 16.4286 54.1169 16.4286 53.511V53.2355C16.4286 51.3008 14.3624 50.0674 12.6594 50.9855L9.80048 52.5267C8.95428 52.9829 7.94973 53.0417 7.05603 52.6875L6.71898 52.5539C5.68138 52.1427 5 51.1397 5 50.0236V50.0236C5 49.0209 5.55125 48.0994 6.43472 47.6252L9.22842 46.1259C10.8429 45.2594 10.7864 42.9253 9.1319 42.1379V42.1379C8.35321 41.7673 7.85714 40.9819 7.85714 40.1195V39.9112C7.85714 38.9476 8.39712 38.0653 9.25516 37.6269L9.47072 37.5168C10.3568 37.0641 11.411 37.0867 12.2768 37.5771L16.96 40.2294C17.8163 40.7143 18.8633 40.7187 19.7236 40.241L23.3755 38.213C23.4336 38.1807 23.4395 38.0995 23.3867 38.0593V38.0593C23.3832 38.0566 23.3795 38.0542 23.3757 38.052L20.7462 36.586C19.5887 35.9406 19.5617 34.2851 20.6976 33.6024V33.6024C21.832 32.9206 21.8069 31.2678 20.6524 30.6207L19.39 29.9131C18.6093 29.4756 17.657 29.4766 16.8773 29.916L11.9081 32.7162C11.1413 33.1483 10.2127 33.1822 9.41638 32.8071L9.33455 32.7685C8.43269 32.3437 7.85714 31.4364 7.85714 30.4395V30.2903C7.85714 29.4344 8.32742 28.6477 9.08131 28.2425V28.2425C10.7188 27.3624 10.7121 25.0116 9.0697 24.1407L6.48917 22.7725C5.57291 22.2866 5 21.3344 5 20.2973V20.2973C5 19.2049 5.63496 18.2122 6.62664 17.754L6.85886 17.6468C7.77573 17.2232 8.8387 17.2571 9.7267 17.7383L12.6453 19.3197C14.3527 20.2448 16.4286 19.0086 16.4286 17.0667V16.9125C16.4286 16.1914 16.7728 15.5137 17.3551 15.0883V15.0883C18.0808 14.5583 19.0517 14.5087 19.8275 14.9623L20.0221 15.076C20.8282 15.5472 21.3202 16.4142 21.3113 17.348L21.2606 22.6664C21.2514 23.6315 21.7708 24.5244 22.6144 24.9934L23.8559 25.6838C25.044 26.3445 26.506 25.4924 26.5169 24.1331V24.1331C26.5275 22.7987 27.9413 21.9443 29.1275 22.5554L29.3289 22.6591C30.6135 23.3208 32.1429 22.3882 32.1429 20.9433V19.8729C32.1429 18.9487 31.649 18.0949 30.8479 17.6341L26.3421 15.0424C25.5118 14.5649 25 13.6801 25 12.7223V12.5634C25 11.7325 25.433 10.9599 26.1408 10.5246V10.5246C26.8834 10.0678 27.818 10.0514 28.5751 10.4838V10.4838C30.165 11.3919 32.1429 10.2438 32.1429 8.41281V5.38314C32.1429 4.4096 32.6392 3.50326 33.4596 2.979V2.979C34.394 2.3818 35.5922 2.38163 36.5282 2.97629V2.97629C37.3546 3.50125 37.8571 4.41354 37.8571 5.39254V7.82084C37.8571 9.98006 40.1298 11.3841 42.0607 10.4177V10.4177C42.9216 9.98688 43.9401 10.0107 44.7799 10.4812L45.2688 10.7552C45.985 11.1565 46.4286 11.9134 46.4286 12.7344V12.7344C46.4286 13.5976 45.9387 14.386 45.1648 14.7684L39.2412 17.6951C38.3936 18.1139 37.8571 18.9774 37.8571 19.9228V20.854C37.8571 22.3205 39.4269 23.2523 40.7143 22.5501L40.7816 22.5133C42.0387 21.8276 43.5714 22.7375 43.5714 24.1694V24.1694C43.5714 25.5727 45.0491 26.4848 46.3035 25.8557L47.7093 25.1508C48.6756 24.6662 49.2857 23.6777 49.2857 22.5967V16.6127C49.2857 15.8563 49.6906 15.1578 50.3468 14.7819V14.7819C50.9796 14.4194 51.7546 14.4093 52.3965 14.7553L52.4283 14.7724C53.1324 15.1518 53.5714 15.8871 53.5714 16.6869V16.9253C53.5714 18.8455 55.598 20.0896 57.3103 19.2207L60.45 17.6275C61.3686 17.1614 62.4577 17.1766 63.3628 17.6684L63.5674 17.7795C64.4503 18.2591 65 19.1833 65 20.1881V20.1881C65 21.1838 64.4601 22.1012 63.5896 22.5845L60.8866 24.0854C59.2715 24.9821 59.2869 27.31 60.9136 28.1854V28.1854C61.6707 28.5928 62.1429 29.3831 62.1429 30.2428V30.3961C62.1429 31.349 61.6139 32.2232 60.7698 32.6654V32.6654C59.9964 33.0706 59.0699 33.0539 58.3115 32.6212L53.3378 29.7832C52.4626 29.2838 51.3848 29.301 50.5259 29.8281L49.1278 30.6863C48.0032 31.3765 48.0089 33.0125 49.1382 33.6948L49.2814 33.7814C50.3744 34.4418 50.3469 36.0362 49.2319 36.6586V36.6586C48.0691 37.3077 48.1018 38.9917 49.2889 39.5951L50.7236 40.3243C51.4573 40.6973 52.3268 40.6887 53.053 40.3014L58.1849 37.5645C59.053 37.1015 60.1045 37.1491 60.9272 37.6885L60.9642 37.7128C61.6998 38.1951 62.1429 39.0155 62.1429 39.895V40.0941C62.1429 40.9251 61.6895 41.6899 60.9605 42.0887V42.0887C59.402 42.9413 59.3795 45.1718 60.9205 46.0556L63.6335 47.6115C64.4787 48.0963 65 48.9962 65 49.9706V49.9706C65 51.0862 64.3186 52.0887 63.2813 52.4992L62.849 52.6703C61.9273 53.0351 60.8923 52.9798 60.0146 52.5191L57.2077 51.0454C55.5548 50.1776 53.5714 51.3764 53.5714 53.2433V53.4187C53.5714 54.1406 53.2037 54.8188 52.6023 55.2182V55.2182C51.8802 55.6979 50.9316 55.6973 50.2154 55.2087V55.2087C49.6337 54.8119 49.2857 54.1532 49.2857 53.4491V48.0373C49.2857 46.9815 48.7034 46.0117 47.7715 45.5154L46.086 44.6179C44.9466 44.0112 43.5714 44.8369 43.5714 46.1277V46.1277C43.5714 47.4263 42.1813 48.2512 41.0415 47.6292L40.7143 47.4506C39.427 46.7481 37.8571 47.6798 37.8571 49.1463V50.1574C37.8571 51.0637 38.3415 51.9008 39.1272 52.3524L43.6225 54.9364C44.4747 55.4262 45 56.3341 45 57.3169V57.5799C45 58.4361 44.5264 59.222 43.7694 59.6219V59.6219C43.0705 59.9911 42.2314 59.9773 41.5451 59.5852L41.4887 59.553C39.8704 58.6286 37.8571 59.7971 37.8571 61.6609V64.6181C37.8571 65.6018 37.35 66.5175 36.5172 67.041V67.041C35.5861 67.6262 34.3998 67.6256 33.4706 67.0376V67.0376ZM31.4077 32.8731C30.5795 34.2462 30.6217 35.977 31.5177 37.3067V37.3067C32.2836 38.4435 33.5647 39.125 34.9354 39.125H35.4485C36.8804 39.125 38.2035 38.3605 38.9185 37.1198V37.1198C39.6297 35.8855 39.6319 34.3663 38.924 33.13L38.8556 33.0105C38.0994 31.6898 36.6939 30.875 35.172 30.875H34.9441C33.4973 30.875 32.1549 31.6342 31.4077 32.8731V32.8731Z" fill="white"/>
</g>
<defs>
<filter id="filter0_ii" x="3" y="1.5307" width="63" height="65.9486" filterUnits="userSpaceOnUse" color-interpolation-filters="sRGB">
<feFlood flood-opacity="0" result="BackgroundImageFix"/>
<feBlend mode="normal" in="SourceGraphic" in2="BackgroundImageFix" result="shape"/>
<feColorMatrix in="SourceAlpha" type="matrix" values="0 0 0 0 0 0 0 0 0 0 0 0 0 0 0 0 0 0 127 0" result="hardAlpha"/>
<feOffset dx="-2"/>
<feGaussianBlur stdDeviation="5.5"/>
<feComposite in2="hardAlpha" operator="arithmetic" k2="-1" k3="1"/>
<feColorMatrix type="matrix" values="0 0 0 0 0.65 0 0 0 0 0.895 0 0 0 0 1 0 0 0 1 0"/>
<feBlend mode="normal" in2="shape" result="effect1_innerShadow"/>
<feColorMatrix in="SourceAlpha" type="matrix" values="0 0 0 0 0 0 0 0 0 0 0 0 0 0 0 0 0 0 127 0" result="hardAlpha"/>
<feOffset dx="1" dy="-1"/>
<feGaussianBlur stdDeviation="2"/>
<feComposite in2="hardAlpha" operator="arithmetic" k2="-1" k3="1"/>
<feColorMatrix type="matrix" values="0 0 0 0 0.114792 0 0 0 0 0.34861 0 0 0 0 0.725 0 0 0 1 0"/>
<feBlend mode="normal" in2="effect1_innerShadow" result="effect2_innerShadow"/>
</filter>
</defs>
</svg>
