<?xml version="1.0" standalone="no"?>
<!DOCTYPE svg PUBLIC "-//W3C//DTD SVG 1.1//EN" "http://www.w3.org/Graphics/SVG/1.1/DTD/svg11.dtd" >
<svg xmlns="http://www.w3.org/2000/svg">
<metadata>
<json>
<![CDATA[
{
	"fontFamily": "Navigation",
	"majorVersion": 1,
	"minorVersion": 0,
	"copyright": "@PlanToBuild2019",
	"designer": "Victora Erickson & Zohar Ifergan",
	"version": "Version 1.0",
	"fontId": "Navigation",
	"psName": "Navigation",
	"subFamily": "Regular",
	"fullName": "Navigation",
	"description": "Font generated by IcoMoon."
}
]]>
</json>
</metadata>
<defs>
<font id="Navigation" horiz-adv-x="1024">
<font-face units-per-em="1024" ascent="960" descent="-64" />
<missing-glyph horiz-adv-x="1024" />
<glyph unicode="&#x20;" horiz-adv-x="512" d="" />
<glyph unicode="&#xe900;" glyph-name="PL" data-tags="P&L" d="M170.667 917.333h682.666c47.13 0 85.333-38.205 85.333-85.333v-768c0-47.13-38.106-85.333-85.231-85.333h-683.042c-47.128 0-85.060 38.204-85.060 85.333v85.333h256v-170.667h42.667v170.667h554.666v42.667h-554.666v170.667h554.666v42.667h-554.666v170.667h554.666v42.667h-853.333v213.334c0 47.128 38.205 85.332 85.333 85.332zM85.334 192v170.667h256v-170.667h-256zM341.334 576h-256v-170.667h256v170.667z" />
<glyph unicode="&#xe901;" glyph-name="Notifctions" data-tags="notifctions" d="M810.667 228.271c0 10.773-4.284 21.542-12.855 30.967-1.429 0-2.859 2.697-4.288 5.389-22.857 21.542-38.571 41.741-48.572 63.283-17.143 35.008-25.715 82.138-25.715 138.688 0 51.166-17.139 96.947-51.426 135.994-34.287 37.702-78.571 61.938-131.43 72.71v28.276c0 10.772-5.713 21.544-14.285 29.623s-19.998 13.465-31.428 13.465c-12.855 0-24.286-5.386-32.858-13.465s-12.855-18.851-12.855-29.623v-28.276c-54.287-10.772-97.144-35.009-131.43-72.71-34.286-39.048-51.428-84.829-51.428-135.994 0-56.55-8.572-103.68-25.714-138.688-11.429-21.542-27.143-41.741-48.571-63.283l-4.286-5.389c-8.571-9.425-12.857-20.194-12.857-30.967s4.286-21.542 12.857-29.623c8.571-8.077 18.572-12.117 32.857-12.117h548.573c12.855 0 24.286 4.041 32.858 12.117 8.572 8.081 12.855 18.85 12.855 29.623zM490.667 64c-26.47 0-48.529 8.205-66.176 24.614-19.118 16.41-27.941 38.293-27.941 62.908h188.236c0-24.614-10.295-46.498-27.942-62.908-19.119-16.41-41.178-24.614-66.176-24.614z" />
<glyph unicode="&#xe902;" glyph-name="Help" data-tags="help" d="M853.333 448c0 60.561-16.516 118.365-46.797 170.667s-71.569 93.591-123.87 123.871c-52.301 30.279-110.106 46.796-170.667 46.796-61.935 0-118.365-16.516-170.667-46.796s-94.968-71.57-125.247-123.871c-30.28-52.301-45.42-110.106-45.42-170.667 0-61.935 15.14-118.366 45.42-170.667s72.946-94.967 125.247-125.248c52.301-30.281 108.732-45.419 170.667-45.419 60.561 0 118.366 15.138 170.667 45.419s93.589 72.947 123.87 125.248c30.281 52.301 46.797 108.732 46.797 170.667zM521.634 676.473c24.777 0 50.927-6.882 75.699-19.269s44.045-28.903 60.561-50.925c15.138-22.022 23.394-45.42 23.394-70.193 0-30.281-9.634-53.676-26.15-72.948-11.008-11.008-27.524-24.772-50.923-38.537-13.764-8.256-22.020-13.764-26.15-16.516-8.26-5.504-11.012-12.386-11.012-19.268v-1.378c0-5.504-2.752-9.634-5.504-12.386s-6.882-4.13-11.012-4.13h-77.073c-5.508 0-9.634 1.378-12.386 4.13-2.756 2.752-4.13 6.882-4.13 12.386v5.508c0 23.398 8.256 44.041 24.772 61.935 8.26 9.634 24.777 20.646 48.175 34.406l2.752 1.378c15.138 8.256 26.15 15.138 31.654 20.646 8.26 6.882 12.386 15.138 12.386 26.149 0 12.387-6.882 23.398-20.642 31.656-13.764 8.258-27.529 13.763-42.667 13.763-16.516 0-31.659-5.505-44.045-13.763-8.256-6.882-20.646-19.269-34.411-35.785-2.752-4.13-6.878-6.882-11.009-6.882-5.505 0-8.258 1.378-11.011 4.13l-48.172 35.784c-4.129 2.753-6.882 5.506-6.882 9.635-1.376 4.129 0 8.258 2.752 12.387 19.269 28.903 41.29 50.925 66.065 64.688 26.15 15.14 57.805 23.398 94.967 23.398zM512 335.138c16.516 0 31.654-6.882 44.045-19.268 12.386-12.386 19.268-27.524 19.268-44.041 0-17.894-6.882-33.033-19.268-45.419-12.39-12.39-27.529-17.894-44.045-17.894-17.894 0-33.033 5.504-45.419 17.894-12.386 12.386-17.894 27.524-17.894 45.419 0 16.516 5.508 31.654 17.894 44.041s27.524 19.268 45.419 19.268z" />
<glyph unicode="&#xe903;" glyph-name="more-horizontal_icon" data-tags="more-horizontal_icon" d="M511.999 373.336c-41.237 0-74.667 33.43-74.667 74.667s33.43 74.667 74.667 74.667c41.237 0 74.667-33.43 74.667-74.667s-33.43-74.667-74.667-74.667zM511.999 672.003c-41.237 0-74.667 33.43-74.667 74.667s33.43 74.666 74.667 74.666c41.237 0 74.667-33.429 74.667-74.666s-33.43-74.667-74.667-74.667zM511.999 74.669c-41.237 0-74.667 33.427-74.667 74.669 0 41.235 33.43 74.662 74.667 74.662s74.667-33.427 74.667-74.662c0-41.242-33.43-74.669-74.667-74.669z" />
<glyph unicode="&#xe904;" glyph-name="Notes" data-tags="Notes" d="M384 21.333h469.333c47.13 0 85.333 38.204 85.333 85.333v682.667c0 47.128-38.204 85.333-85.333 85.333h-682.667c-47.128 0-85.333-38.205-85.333-85.333v-469.333h213.333c47.128 0 85.333-38.204 85.333-85.333v-213.333zM192 128l106.667-106.667v170.667c0 23.565-19.103 42.667-42.667 42.667h-170.667l106.667-106.667z" />
<glyph unicode="&#xe905;" glyph-name="Procurement" data-tags="Procurement" d="M170.667 917.328h469.333v-213.333c0-47.128 38.204-85.333 85.333-85.333h213.333v-554.665c0-47.13-38.204-85.333-85.333-85.333h-682.667c-47.128 0-85.333 38.204-85.333 85.333v767.999c0 47.128 38.205 85.333 85.333 85.333zM426.667 639.995c-23.564 0-42.667-19.103-42.667-42.667v-21.090c-11.424-2.671-22.211-6.685-32.318-12.090-20.090-10.742-35.958-25.435-47.242-44.084l-0.048-0.081c-10.755-18.074-16.137-37.858-16.137-59.106 0-23.548 5.784-44.151 18.219-60.919l0.131-0.171c11.53-15.010 25.425-26.94 41.658-35.622l0.444-0.213c15.477-7.526 35.437-15.953 59.738-25.267 19.001-7.258 33.153-13.188 42.659-17.809l0.201-0.094c9.041-4.203 16.183-9.515 21.709-15.817l0.282-0.299c4.945-5.286 7.471-11.601 7.471-19.729 0-11.298-4.51-20.574-14.835-28.57l-0.171-0.137c-10.044-8.055-23.206-12.518-40.461-12.518-18.655 0-32.296 4.719-42.179 12.975-11.522 10.146-22.758 23.893-33.61 41.532l-0.266 0.397c-4.296 6.434-8.423 11.942-12.249 15.578-5.211 6.042-12.425 8.367-19.558 8.367-10.512 0-19.828-4.228-27.668-11.311-7.937-7.087-12.439-16.303-12.439-27.042 0-3.443 1.004-6.882 1.893-9.463 0.999-2.897 2.396-6.208 4.090-9.83l0.082-0.166c13.145-27.072 31.489-49.6 54.986-67.396l0.147-0.111c13.68-10.057 28.877-17.203 45.47-21.534v-26.377c0-23.565 19.103-42.667 42.667-42.667s42.667 19.102 42.667 42.667v26.688c18.394 4.809 35.055 12.881 49.83 24.341 26.603 20.642 39.77 49.34 39.77 84.578 0 22.656-5.828 42.543-18.266 58.79-11.102 15.078-24.815 27.034-41.062 35.721-15.219 8.137-35.106 16.87-59.482 26.219l-0.043 0.013c-27.796 10.547-47.67 19.861-60.205 27.861-9.532 6.758-14.137 15.65-14.137 28.066 0 10.795 3.738 21.12 12.090 31.275 7.029 8.486 20.010 14.327 42.694 14.327 18.564 0 32.495-4.911 42.918-13.756l0.218-0.175c9.626-7.808 16.188-20.779 17.83-41.425 0.593-7.599 2.739-14.797 7.061-20.958l0.516-0.734 0.614-0.657c7.083-7.578 18.125-9.169 27.78-9.169 10.138 0 21.077 2.492 27.849 11.503 6.298 7.791 8.162 18.389 8.162 29.039 0 21.79-5.641 41.911-16.956 60.062-11.307 18.135-27.157 32.518-47.151 43.21-6.447 3.445-13.163 6.326-20.151 8.654 0.081 1.054 0.119 2.119 0.119 3.193v21.333c0 23.564-19.102 42.667-42.667 42.667zM938.667 703.995l-213.333 213.333v-170.667c0-23.564 19.102-42.667 42.667-42.667h170.667z" />
<glyph unicode="&#xe906;" glyph-name="Project" data-tags="Project" d="M170.667 917.328c-47.128 0-85.333-38.205-85.333-85.333v-767.999c0-47.13 38.205-85.333 85.333-85.333h682.667c47.13 0 85.333 38.204 85.333 85.333h-256c-23.565 0-42.667 19.102-42.667 42.667v85.333c0 23.565 19.102 42.667 42.667 42.667h256v85.333h-42.667c-23.565 0-42.667 19.102-42.667 42.667v85.333c0 23.565 19.102 42.667 42.667 42.667h42.667v85.332h-256c-23.565 0-42.667 19.102-42.667 42.667v85.333c0 23.564 19.102 42.667 42.667 42.667h256v85.333c0 47.128-38.204 85.333-85.333 85.333h-682.667zM384 447.996c0 23.565 19.103 42.667 42.667 42.667h298.667c23.565 0 42.667-19.102 42.667-42.667v-85.333c0-23.565-19.102-42.667-42.667-42.667h-298.667c-23.564 0-42.667 19.102-42.667 42.667v85.333zM256 234.662h256c23.565 0 42.667-19.102 42.667-42.667v-85.333c0-23.565-19.102-42.667-42.667-42.667h-256c-23.564 0-42.667 19.102-42.667 42.667v85.333c0 23.565 19.103 42.667 42.667 42.667z" />
<glyph unicode="&#xe907;" glyph-name="Projects-Home" data-tags="Projects (Home)" d="M810.667 789.333c0 47.128 38.204 85.333 85.333 85.333s85.333-38.205 85.333-85.333v-554.667l-7.74 5.333c-48.055 33.126-110.080 38.263-162.927 13.491v535.842zM128 789.333c-47.128 0-85.333-38.205-85.333-85.333v-640c0-47.13 38.205-85.333 85.333-85.333h746.667c42.667 0 106.667 33.434 106.667 106.667s-64 106.667-106.667 106.667c-42.667 0-69.833-22.498-85.333-42.667-3.558-4.629-8.708-12.134-13.056-18.624-5.218-7.782-13.935-12.535-23.305-12.535-15.266 0-27.639 12.373-27.639 27.639v643.52h-597.333zM213.333 64c-23.564 0-42.667 19.102-42.667 42.667v175.522c0 10.603 3.948 20.826 11.074 28.676l170.334 187.661c16.931 18.654 46.254 18.654 63.186 0l170.336-187.661c7.125-7.851 11.072-18.074 11.072-28.676v-175.522c0-23.565-19.102-42.667-42.667-42.667h-127.334v128c0 23.565-19.102 42.667-42.667 42.667s-42.667-19.102-42.667-42.667v-128h-128z" />
<glyph unicode="&#xe908;" glyph-name="Resources" data-tags="Resources" d="M85.333 746.667v-682.667c0-47.13 38.205-85.333 85.333-85.333h682.667c47.13 0 85.333 38.204 85.333 85.333v640c0 47.128-38.204 85.333-85.333 85.333h-378.965c-29.235 0-55.96 16.518-69.035 42.667s-39.801 42.667-69.036 42.667h-165.631c-47.128 0-85.333-38.208-85.333-85.336 0-15.171 0-30.114 0-42.664zM580.57 378.667c18.287 0 35.051-5.001 51.051-15.002 15.236-9.997 28.19-24.166 37.333-40.832 9.143-17.502 13.713-35.831 13.713-55.834v-34.999c0-11.665-3.81-20.834-10.667-28.335-7.62-8.333-16-11.665-25.903-11.665h-268.192c-10.667 0-19.048 3.332-25.905 11.665-7.619 7.501-10.667 16.67-10.667 28.335v34.999c0 20.002 4.571 38.332 13.714 55.834 9.143 16.666 21.333 30.835 37.333 40.832 15.238 10.001 32.762 15.002 51.049 15.002h12.949c17.523-9.165 35.81-13.333 55.62-13.333 19.046 0 37.333 4.169 55.62 13.333h12.949zM512 618.667c58.91 0 106.667-47.756 106.667-106.667s-47.757-106.667-106.667-106.667c-58.91 0-106.667 47.757-106.667 106.667s47.757 106.667 106.667 106.667z" />
<glyph unicode="&#xe909;" glyph-name="Schedule" data-tags="Schedule" d="M85.333 490.667v-426.667c0-47.13 38.205-85.333 85.333-85.333h682.667c47.13 0 85.333 38.204 85.333 85.333v426.667h-853.333zM170.667 320c0 23.565 19.103 42.667 42.667 42.667h341.333c23.565 0 42.667-19.102 42.667-42.667s-19.102-42.667-42.667-42.667h-341.333c-23.564 0-42.667 19.102-42.667 42.667zM640 192h170.667c23.565 0 42.667-19.102 42.667-42.667s-19.102-42.667-42.667-42.667h-170.667c-23.565 0-42.667 19.102-42.667 42.667s19.102 42.667 42.667 42.667zM682.667 874.75c0 23.518 19.063 42.583 42.581 42.583 23.522 0 42.586-19.065 42.586-42.583v-85.417h85.5c47.13 0 85.333-38.205 85.333-85.333v-128h-853.333v128c0 47.128 38.205 85.333 85.333 85.333h85.333v85.417c0 23.518 19.065 42.583 42.583 42.583s42.583-19.065 42.583-42.583v-85.417h341.5v85.417z" />
<glyph unicode="&#xe90a;" glyph-name="Settings" data-tags="settings" d="M784.311 399.829c5.751 31.654 5.751 63.309 0 96.341l60.395 34.411c2.876 1.374 5.751 4.128 7.189 8.257 1.438 2.753 1.438 6.882 1.438 11.011-17.254 48.172-43.14 90.839-79.087 129.376-2.876 2.753-7.189 4.129-10.065 5.506-4.314 0-8.627 0-11.503-1.376l-60.395-34.409c-25.886 20.645-56.081 37.161-87.714 48.172v67.441c0 2.753-1.438 6.882-4.314 9.635s-5.756 5.505-8.631 6.882c-53.201 11.011-106.406 11.011-158.174 0-4.314-1.376-7.188-4.129-10.064-6.882s-2.876-6.882-2.876-9.635v-67.441c-33.073-11.011-61.832-27.527-87.715-48.172l-60.394 34.409c-4.314 1.376-8.628 1.376-11.503 1.376-4.314-1.376-7.19-2.753-10.066-5.506-37.387-38.537-63.27-81.204-79.087-129.376-1.438-4.129-1.438-8.258 0-11.011 1.438-4.129 4.314-6.883 8.628-8.257l60.394-34.411c-5.752-33.033-5.752-64.687 0-96.341l-60.394-34.411c-4.314-2.752-7.19-5.504-8.628-8.256-1.438-4.13-1.438-8.26 0-11.012 15.817-49.549 41.7-92.215 79.087-129.378 2.876-2.752 5.752-5.504 10.066-5.504 2.876-1.374 7.19-1.374 11.503 1.378l60.394 34.406c25.883-22.020 54.642-37.158 87.715-48.171v-67.443c0-4.126 0-8.256 2.876-11.008s5.751-5.508 10.064-5.508c51.767-11.008 104.973-11.008 158.174 0 2.876 0 5.756 2.756 8.631 5.508s4.314 6.882 4.314 11.008v67.443c31.633 11.012 61.828 26.15 87.714 48.171l60.395-34.406c2.876-2.752 7.189-2.752 11.503-1.378 2.876 0 7.189 2.752 10.065 5.504 35.947 37.163 61.833 79.829 79.087 129.378 0 2.752 0 6.882-1.438 11.012-1.438 2.752-4.314 5.504-7.189 8.256l-60.395 34.411zM627.575 448c0-30.281-11.503-56.431-34.513-78.451-23.006-22.020-48.887-31.654-80.525-31.654-31.633 0-58.953 9.634-81.963 31.654-23.006 22.020-33.072 48.171-33.072 78.451s10.066 55.053 33.072 77.077c23.010 22.019 50.33 33.030 81.963 33.030 31.637 0 57.519-11.011 80.525-33.030 23.010-22.025 34.513-46.797 34.513-77.077z" />
<glyph unicode="&#xe90b;" glyph-name="Snapshots" data-tags="Snapshots" d="M938.671 64.017v341.299c-90.15 0-180.301-0.021-270.451-0.043-194.295-0.043-388.589-0.090-582.883 0.077v-341.333c0-47.13 38.059-85.333 85.187-85.333h682.959c47.13 0 85.188 38.204 85.188 85.333zM810.671 192.017c0-23.565-19.102-42.667-42.667-42.667h-341.333c-23.566 0-42.668 19.102-42.668 42.667s19.102 42.667 42.668 42.667h341.333c23.565 0 42.667-19.102 42.667-42.667zM341.336 192.017c0-23.565-19.103-42.667-42.667-42.667h-42.667c-23.564 0-42.667 19.102-42.667 42.667s19.102 42.667 42.667 42.667h42.667c23.564 0 42.667-19.102 42.667-42.667zM938.671 832.016c0 47.128-38.208 85.333-85.333 85.333h-682.668c-47.128 0-85.333-28.654-85.333-64v-362.665h853.335v341.332zM810.671 704.016c0-23.564-19.102-42.667-42.667-42.667h-128c-23.565 0-42.667 19.103-42.667 42.667s19.102 42.667 42.667 42.667h128c23.565 0 42.667-19.103 42.667-42.667zM554.671 704.016c0-23.564-19.102-42.667-42.667-42.667h-256.001c-23.564 0-42.667 19.103-42.667 42.667s19.103 42.667 42.667 42.667h256.001c23.565 0 42.667-19.103 42.667-42.667z" />
<glyph unicode="&#xe90c;" glyph-name="Structure" data-tags="Structure" d="M341.333 789.333c0 47.128 38.205 85.333 85.333 85.333h469.333c47.13 0 85.333-38.205 85.333-85.333v-426.667c0-47.13-38.204-85.333-85.333-85.333h-554.667v512zM85.333 646.367c0 9.688 3.297 19.088 9.35 26.653l85.333 106.667c25.195 31.494 75.984 13.679 75.984-26.653v-539.7l-170.667-213.333v646.367zM341.333 192h536.994c38.012 0 57.050-45.956 30.17-72.836l-128-128c-8-8-18.854-12.497-30.17-12.497h-579.661l170.667 213.333z" />
<glyph unicode="&#xe90d;" glyph-name="Teams" data-tags="Teams" d="M170.667 917.328c-47.128 0-85.333-38.205-85.333-85.333v-767.999c0-47.13 38.205-85.333 85.333-85.333h682.667c47.13 0 85.333 38.204 85.333 85.333v767.999c0 47.128-38.204 85.333-85.333 85.333h-682.667zM405.333 703.995c66.274 0 120-52.532 120-117.333s-53.726-117.332-120-117.332c-66.274 0-120 52.531-120 117.332s53.726 117.333 120 117.333zM482.475 439.996c20.574 0 39.428-5.5 57.429-16.499 11.277-7.236 21.44-16.457 30.003-27.132 4.454-5.559 8.478-11.511 11.998-17.788 10.287-19.247 15.428-39.415 15.428-61.414v-38.502c0-12.834-4.284-22.916-11.998-31.164-8.572-9.169-18.001-12.834-29.146-12.834h-301.713c-12 0-21.429 3.665-29.143 12.834-8.571 8.247-12 18.33-12 31.164v38.502c0 21.999 5.143 42.167 15.429 61.414 10.286 18.334 24 33.916 42 44.919 17.143 10.999 36.857 16.499 57.428 16.499h14.572c19.715-10.086 40.286-14.669 62.572-14.669 21.427 0 42.001 4.582 62.571 14.669h14.571zM778.667 234.662h-150.067c7.415 12.907 11.401 27.703 11.401 43.998v38.502c0 29.107-6.916 56.171-20.463 81.523l-0.209 0.388-0.213 0.38c13.372-6.037 27.294-8.794 42.219-8.794 16.666 0 32.666 3.75 48.666 12.002h11.332c16 0 30.669-4.501 44.668-13.5 13.333-9.003 24.666-21.751 32.67-36.753 7.996-15.748 11.998-32.247 11.998-50.249v-31.501c0-10.5-3.332-18.748-9.335-25.498-6.665-7.501-13.999-10.5-22.665-10.5zM568 522.662c0 53.018 41.788 95.999 93.333 95.999s93.333-42.981 93.333-95.999c0-53.022-41.788-96-93.333-96s-93.333 42.978-93.333 96z" />
<glyph unicode="&#xe90e;" glyph-name="Templates" data-tags="Templates" d="M170.667 917.333c-47.128 0-85.333-38.205-85.333-85.333v-341.333h554.667v426.667h-469.333zM853.333 917.333h-128v-938.667h128c47.13 0 85.333 38.204 85.333 85.333v768c0 47.128-38.204 85.333-85.333 85.333zM426.667 405.333h213.333v-426.667h-213.333v426.667zM341.333 405.333h-256v-341.333c0-47.13 38.205-85.333 85.333-85.333h170.667v426.667z" />
<glyph unicode="&#xe90f;" glyph-name="Timesheet" data-tags="Timesheet" d="M85.333 832v-768c0-47.13 38.205-85.333 85.333-85.333h682.667c47.13 0 85.333 38.204 85.333 85.333v554.667h-213.333c-47.13 0-85.333 38.205-85.333 85.333v213.333h-469.333c-47.128 0-85.333-38.205-85.333-85.333zM725.333 341.333c0-153.169-124.164-277.333-277.333-277.333-153.167 0-277.333 124.164-277.333 277.333s124.166 277.333 277.333 277.333c153.169 0 277.333-124.164 277.333-277.333zM640 341.333c0-106.039-85.961-192-192-192s-192 85.961-192 192c0 106.039 85.961 192 192 192s192-85.961 192-192zM938.667 704h-170.667c-23.565 0-42.667 19.103-42.667 42.667v170.667l213.333-213.333zM515.021 321.698l-50.876 26.193v81.583c0 22.012-17.847 39.859-39.86 39.859s-39.86-17.847-39.86-39.859v-97.519c-2.221-13.611 4.347-27.345 17.863-34.304l72.874-37.517c18.005-9.271 41.523-3.004 52.531 13.995 11.008 17.003 5.333 38.298-12.672 47.569z" />
<glyph unicode="&#xe910;" glyph-name="Tracking" data-tags="Tracking" d="M128 490.658c-47.128 0-85.333 38.204-85.333 85.332v256c0 47.128 38.205 85.333 85.333 85.333h256c47.13 0 85.333-38.205 85.333-85.333v-256c0-47.128-38.204-85.332-85.333-85.332h-256zM128 831.99v-256h256v256h-256zM554.667 831.99c0 47.128 38.204 85.333 85.333 85.333h256c47.13 0 85.333-38.205 85.333-85.333v-256c0-47.128-38.204-85.332-85.333-85.332h-256c-47.13 0-85.333 38.204-85.333 85.332v256zM896 575.99v256h-256v-256h256zM128-21.342c-47.128 0-85.333 38.204-85.333 85.333v256c0 47.125 38.205 85.333 85.333 85.333h256c47.13 0 85.333-38.208 85.333-85.333v-256c0-47.13-38.204-85.333-85.333-85.333h-256zM128 319.991v-256h256v256h-256zM213.333 234.658v-90.667h85.333v90.667h-85.333zM213.333 746.656v-85.333h85.333v85.333h-85.333zM810.667 655.99v90.667h-85.333v-90.667h85.333zM896 405.325v-85.333h-128v85.333h-213.333v-426.667h85.333v213.333h85.333v-42.667h256v256h-85.333zM896 63.991v-85.333h85.333v85.333h-85.333zM768 63.991v-85.333h85.333v85.333h-85.333z" />
<glyph unicode="&#xe911;" glyph-name="Workflows" data-tags="workflows" d="M85.333 789.333c0 47.128 38.205 85.333 85.333 85.333h128v-128c0-23.564 19.103-42.667 42.667-42.667h341.333c23.565 0 42.667 19.103 42.667 42.667v128h128c47.13 0 85.333-38.205 85.333-85.333v-725.333c0-47.13-38.204-85.333-85.333-85.333h-682.667c-47.128 0-85.333 38.204-85.333 85.333v725.333zM712.836 460.497c16.661 16.661 16.661 43.678 0 60.339-16.661 16.663-43.678 16.663-60.339 0l-183.164-183.164-55.163 55.164c-16.663 16.661-43.677 16.661-60.34 0s-16.662-43.678 0-60.339l85.334-85.333c16.661-16.661 43.678-16.661 60.339 0l213.333 213.333zM384 896c0 11.782 9.551 21.333 21.333 21.333h213.333c11.78 0 21.333-9.551 21.333-21.333v-85.333c0-11.782-9.553-21.333-21.333-21.333h-213.333c-11.782 0-21.333 9.551-21.333 21.333v85.333z" />
<glyph unicode="&#xe912;" glyph-name="Budegts" data-tags="Budegts" d="M170.667 917.328c-47.128 0-85.333-38.205-85.333-85.333v-767.999c0-47.13 38.205-85.333 85.333-85.333h682.667c47.13 0 85.333 38.204 85.333 85.333v767.999c0 47.128-38.204 85.333-85.333 85.333h-682.667zM213.333 746.662c0 23.564 19.103 42.667 42.667 42.667h512c23.565 0 42.667-19.103 42.667-42.667v-128c0-23.564-19.102-42.667-42.667-42.667h-512c-23.564 0-42.667 19.102-42.667 42.667v128zM682.667 405.329c0 23.565 19.102 42.667 42.667 42.667h42.667c23.565 0 42.667-19.102 42.667-42.667v-256c0-23.565-19.102-42.667-42.667-42.667h-42.667c-23.565 0-42.667 19.102-42.667 42.667v256zM256 447.996h85.333c23.564 0 42.667-19.102 42.667-42.667v-42.667c0-23.565-19.103-42.667-42.667-42.667h-85.333c-23.564 0-42.667 19.102-42.667 42.667v42.667c0 23.565 19.103 42.667 42.667 42.667zM426.667 405.329c0 23.565 19.102 42.667 42.667 42.667h85.333c23.565 0 42.667-19.102 42.667-42.667v-42.667c0-23.565-19.102-42.667-42.667-42.667h-85.333c-23.565 0-42.667 19.102-42.667 42.667v42.667zM256 234.662h85.333c23.564 0 42.667-19.102 42.667-42.667v-42.667c0-23.565-19.103-42.667-42.667-42.667h-85.333c-23.564 0-42.667 19.102-42.667 42.667v42.667c0 23.565 19.103 42.667 42.667 42.667zM426.667 191.996c0 23.565 19.102 42.667 42.667 42.667h85.333c23.565 0 42.667-19.102 42.667-42.667v-42.667c0-23.565-19.102-42.667-42.667-42.667h-85.333c-23.565 0-42.667 19.102-42.667 42.667v42.667z" />
<glyph unicode="&#xe913;" glyph-name="Chat" data-tags="Chat" d="M170.667 917.333c-47.128 0-85.333-38.205-85.333-85.333v-640c0-47.13 38.205-85.333 85.333-85.333h85.333v-119.164c0-19.004 22.979-28.523 36.418-15.083l134.249 134.246h426.667c47.13 0 85.333 38.204 85.333 85.333v640c0 47.128-38.204 85.333-85.333 85.333h-682.667zM746.667 448c-35.345 0-64 28.655-64 64s28.655 64 64 64 64-28.654 64-64c0-35.345-28.655-64-64-64zM341.333 512c0-35.345-28.654-64-64-64s-64 28.655-64 64c0 35.346 28.654 64 64 64s64-28.654 64-64zM576 512c0-35.345-28.655-64-64-64s-64 28.655-64 64c0 35.346 28.655 64 64 64s64-28.654 64-64z" />
<glyph unicode="&#xe914;" glyph-name="Claims" data-tags="Claims" d="M405.333 917.333h213.333c11.78 0 21.333-9.551 21.333-21.333v-85.333c0-11.782-9.553-21.333-21.333-21.333h-213.333c-11.782 0-21.333 9.551-21.333 21.333v85.333c0 11.782 9.551 21.333 21.333 21.333zM170.667 874.667h128v-128c0-23.564 19.103-42.667 42.667-42.667h341.333c23.565 0 42.667 19.103 42.667 42.667v128h128c47.13 0 85.333-38.205 85.333-85.333v-725.333c0-47.13-38.204-85.333-85.333-85.333h-682.667c-47.128 0-85.333 38.204-85.333 85.333v725.333c0 47.128 38.205 85.333 85.333 85.333zM451.661 545.828c-16.666 16.662-43.679 16.662-60.341 0s-16.663-43.68 0-60.341l60.341-60.339-60.34-60.339c-16.662-16.661-16.662-43.678 0-60.339s43.679-16.661 60.34 0l60.339 60.339 60.339-60.339c16.661-16.661 43.678-16.661 60.339 0s16.661 43.678 0 60.339l-60.339 60.339 60.339 60.339c16.666 16.661 16.666 43.678 0 60.341-16.661 16.662-43.678 16.662-60.339 0l-60.339-60.341-60.339 60.341zM298.667 192.183c-23.564 0-42.667-19.102-42.667-42.667 0-23.561 19.103-42.667 42.667-42.667h426.667c23.565 0 42.667 19.106 42.667 42.667 0 23.565-19.102 42.667-42.667 42.667h-426.667z" />
<glyph unicode="&#xe915;" glyph-name="Contacts" data-tags="Contacts" d="M85.333 832v-640c0-47.13 38.205-85.333 85.333-85.333h682.667c47.13 0 85.333 38.204 85.333 85.333v640c0 47.128-38.204 85.333-85.333 85.333h-682.667c-47.128 0-85.333-38.205-85.333-85.333zM580.57 506.667c18.287 0 35.051-5.001 51.051-15.002 15.236-9.997 28.19-24.166 37.333-40.832 9.143-17.502 13.713-35.831 13.713-55.834v-34.999c0-11.665-3.81-20.834-10.667-28.335-7.62-8.333-16-11.665-25.903-11.665h-268.192c-10.667 0-19.048 3.332-25.905 11.665-7.619 7.501-10.667 16.67-10.667 28.335v34.999c0 20.002 4.571 38.332 13.714 55.834 9.143 16.666 21.333 30.835 37.333 40.832 15.238 10.001 32.762 15.002 51.049 15.002h12.949c17.523-9.165 35.81-13.333 55.62-13.333 19.046 0 37.333 4.169 55.62 13.333h12.949zM512 746.667c58.91 0 106.667-47.756 106.667-106.667s-47.757-106.667-106.667-106.667c-58.91 0-106.667 47.756-106.667 106.667s47.757 106.667 106.667 106.667zM256 106.667h170.667l-134.249-134.246c-13.439-13.44-36.418-3.921-36.418 15.083v119.164z" />
<glyph unicode="&#xe916;" glyph-name="Dashboards" data-tags="Dashboards" d="M85.333 832c0 47.128 38.205 85.333 85.333 85.333h682.667c47.13 0 85.333-38.205 85.333-85.333v-768c0-47.13-38.204-85.333-85.333-85.333h-682.667c-47.128 0-85.333 38.204-85.333 85.333v768zM469.333 661.333c-141.385 0-256-114.615-256-256s114.615-256 256-256c141.385 0 256 114.615 256 256h-256v256zM810.667 490.667c0 141.385-114.615 256-256 256v-256h256z" />
<glyph unicode="&#xe917;" glyph-name="Defect" data-tags="Defect" d="M128 832v-768c0-47.13 38.205-85.333 85.333-85.333h682.667c47.13 0 85.333 38.204 85.333 85.333v768c0 47.128-38.204 85.333-85.333 85.333h-682.667c-47.128 0-85.333-38.205-85.333-85.333zM554.667 320c-23.902 0-43.605 18.743-44.796 42.615l-16.009 320.131c-1.737 34.774 25.988 63.92 60.804 63.92s62.541-29.146 60.804-63.92l-16.009-320.131c-1.19-23.872-20.894-42.615-44.796-42.615zM554.667 234.667c23.565 0 42.667-19.102 42.667-42.667s-19.102-42.667-42.667-42.667c-23.565 0-42.667 19.102-42.667 42.667s19.102 42.667 42.667 42.667zM42.667 704c0 23.564 19.103 42.667 42.667 42.667h85.333c23.564 0 42.667-19.103 42.667-42.667s-19.103-42.667-42.667-42.667h-85.333c-23.564 0-42.667 19.103-42.667 42.667zM42.667 533.333c0 23.564 19.103 42.667 42.667 42.667h85.333c23.564 0 42.667-19.103 42.667-42.667s-19.103-42.667-42.667-42.667h-85.333c-23.564 0-42.667 19.102-42.667 42.667zM42.667 362.667c0 23.565 19.103 42.667 42.667 42.667h85.333c23.564 0 42.667-19.102 42.667-42.667s-19.103-42.667-42.667-42.667h-85.333c-23.564 0-42.667 19.102-42.667 42.667zM42.667 192c0 23.565 19.103 42.667 42.667 42.667h85.333c23.564 0 42.667-19.102 42.667-42.667s-19.103-42.667-42.667-42.667h-85.333c-23.564 0-42.667 19.102-42.667 42.667z" />
<glyph unicode="&#xe918;" glyph-name="Documents" data-tags="Documents" d="M85.333 832c0 47.128 38.205 85.333 85.333 85.333h469.333v-213.333c0-47.128 38.204-85.333 85.333-85.333h213.333v-554.667c0-47.13-38.204-85.333-85.333-85.333h-682.667c-47.128 0-85.333 38.204-85.333 85.333v768zM938.667 704l-213.333 213.333v-170.667c0-23.564 19.102-42.667 42.667-42.667h170.667z" />
<glyph unicode="&#xe919;" glyph-name="Fabrication" data-tags="Fabrication" d="M512 234.658c117.833 0 213.333 95.509 213.333 213.333 0 117.821-95.501 213.332-213.333 213.332s-213.333-95.511-213.333-213.332c0-117.824 95.5-213.333 213.333-213.333zM640 447.991c0-70.69-57.335-128-128-128s-128 57.31-128 128c0 70.686 57.335 127.998 128 127.998s128-57.312 128-127.998zM170.667 917.323h682.667c47.168 0 85.333-38.208 85.333-85.333v-767.998c0-47.125-38.165-85.333-85.333-85.333h-682.667c-47.167 0-85.333 38.208-85.333 85.333v767.998c0 47.125 38.167 85.333 85.333 85.333zM512 149.325c164.915 0 298.667 133.717 298.667 298.667 0 164.946-133.751 298.665-298.667 298.665s-298.667-133.719-298.667-298.665c0-164.949 133.75-298.667 298.667-298.667z" />
<glyph unicode="&#xe91a;" glyph-name="Logs" data-tags="Logs" d="M170.667 917.328c-47.128 0-85.333-38.205-85.333-85.333v-767.999c0-47.13 38.205-85.333 85.333-85.333h682.667c47.13 0 85.333 38.204 85.333 85.333v554.665h-213.333c-47.13 0-85.333 38.205-85.333 85.333v213.333h-469.333zM704.772 201.493c-9.455 14.178 0.708 33.169 17.749 33.169h90.944c17.037 0 27.2-18.991 17.749-33.169l-45.47-68.207c-8.448-12.668-27.059-12.668-35.503 0l-45.47 68.207zM255.993 234.662h341.332c23.565 0 42.667-19.106 42.667-42.667 0-23.565-19.102-42.667-42.667-42.667h-341.332c-23.564 0-42.667 19.102-42.667 42.667 0 23.561 19.102 42.667 42.667 42.667zM704.772 414.827c-9.455 14.178 0.708 33.169 17.749 33.169h90.944c17.037 0 27.2-18.991 17.749-33.169l-45.47-68.207c-8.448-12.668-27.059-12.668-35.503 0l-45.47 68.207zM213.326 405.329c0 23.561 19.102 42.667 42.667 42.667h341.332c23.565 0 42.667-19.106 42.667-42.667 0-23.565-19.102-42.667-42.667-42.667h-341.332c-23.564 0-42.667 19.102-42.667 42.667zM938.667 703.994l-213.333 213.333v-170.667c0-23.564 19.102-42.667 42.667-42.667h170.667z" />
<glyph unicode="&#xe91b;" glyph-name="Maintenance" data-tags="Maintenance" d="M405.333 917.333c-11.782 0-21.333-9.551-21.333-21.333v-85.333c0-11.782 9.551-21.333 21.333-21.333h213.333c11.78 0 21.333 9.551 21.333 21.333v85.333c0 11.782-9.553 21.333-21.333 21.333h-213.333zM170.667 874.667c-47.128 0-85.333-38.205-85.333-85.333v-725.333c0-47.13 38.205-85.333 85.333-85.333h682.667c47.13 0 85.333 38.204 85.333 85.333v725.333c0 47.128-38.204 85.333-85.333 85.333h-128v-128c0-23.564-19.102-42.667-42.667-42.667h-341.333c-23.564 0-42.667 19.103-42.667 42.667v128h-128zM341.333 405.338c0 55.731 35.619 103.142 85.333 120.713v-120.713c0-23.565 19.102-42.667 42.667-42.667h85.333c23.565 0 42.667 19.102 42.667 42.667v120.713c49.715-17.57 85.333-64.981 85.333-120.713v-42.667c0-70.694-57.306-128-128-128v-256h-85.333v256c-70.692 0-128 57.306-128 128v42.667z" />
<glyph unicode="&#xe91c;" glyph-name="Manufacturing" data-tags="Manufacturing" d="M405.333 917.333h213.333c11.78 0 21.333-9.551 21.333-21.333v-85.333c0-11.782-9.553-21.333-21.333-21.333h-213.333c-11.782 0-21.333 9.551-21.333 21.333v85.333c0 11.782 9.551 21.333 21.333 21.333zM170.667 874.667h128v-128c0-23.564 19.103-42.667 42.667-42.667h341.333c23.565 0 42.667 19.103 42.667 42.667v128h128c47.13 0 85.333-38.205 85.333-85.333v-725.333c0-47.13-38.204-85.333-85.333-85.333h-682.667c-47.128 0-85.333 38.204-85.333 85.333v725.333c0 47.128 38.205 85.333 85.333 85.333zM482.667 334.72l-205.333 92.19v-215.108l205.333-107.558v230.477zM746.667 426.91l-205.333-92.19v-230.477l205.333 107.558v215.108zM512.115 573.584l-205.452-86.284 205.336-92.122 216.841 92.122-216.725 86.284z" />
<glyph unicode="&#xe91d;" glyph-name="ATP-Check" data-tags="ATP Check" d="M128 917.312c-47.128 0-85.333-38.205-85.333-85.333v-768c0-47.13 38.205-85.333 85.333-85.333h768c47.13 0 85.333 38.204 85.333 85.333v768c0 47.128-38.204 85.333-85.333 85.333h-768zM648.836 734.149l85.606-85.609c7.561-7.698 12.224-18.252 12.224-29.894 0-11.549-4.587-22.026-12.041-29.708l-85.79-85.796c-16.661-16.661-43.678-16.661-60.339 0s-16.661 43.677 0 60.34l12.497 12.497h-195.661c-11.316 0-22.168-4.495-30.17-12.497s-12.497-18.854-12.497-30.17v-42.667c0-23.565-19.103-42.667-42.667-42.667s-42.667 19.102-42.667 42.667v42.667c0 33.948 13.486 66.505 37.49 90.51s56.562 37.49 90.51 37.49h195.661l-12.497 12.497c-16.661 16.662-16.661 43.677 0 60.34s43.678 16.662 60.339 0zM414.385 350.059c16.647-16.674 16.625-43.691-0.050-60.339l-12.507-12.484 195.625-0.166c11.315-0.009 22.17 4.48 30.178 12.476 8.009 7.991 12.514 18.842 12.523 30.157l0.034 42.667c0.021 23.565 19.14 42.65 42.705 42.633 23.565-0.021 42.65-19.14 42.628-42.701l-0.034-42.667c-0.026-33.95-13.542-66.496-37.564-90.479-24.026-23.987-56.593-37.444-90.543-37.414l-195.624 0.162 12.486-12.51c16.648-16.674 16.626-43.691-0.050-60.339s-43.691-16.627-60.34 0.051l-84.244 84.382c-8.332 7.795-13.536 18.893-13.526 31.202s5.232 23.398 13.577 31.177l84.384 84.245c16.676 16.649 43.691 16.627 60.34-0.051z" />
<glyph unicode="&#xe91e;" glyph-name="Permissions" data-tags="Permissions" d="M213.333 576c0 164.949 133.718 298.667 298.667 298.667s298.667-133.718 298.667-298.667v-42.667h42.667c47.13 0 85.333-38.204 85.333-85.333v-384c0-47.13-38.204-85.333-85.333-85.333h-682.667c-47.128 0-85.333 38.204-85.333 85.333v384c0 47.13 38.205 85.333 85.333 85.333h42.667v42.667zM725.333 533.333v42.667c0 117.821-95.514 213.333-213.333 213.333s-213.333-95.513-213.333-213.333v-42.667h426.667zM426.667 320c0-31.586 17.161-59.162 42.667-73.916v-96.751c0-23.565 19.102-42.667 42.667-42.667s42.667 19.102 42.667 42.667v96.751c25.506 14.754 42.667 42.33 42.667 73.916 0 47.13-38.204 85.333-85.333 85.333s-85.333-38.204-85.333-85.333z" />
</font>
</defs>
</svg>
