<svg width="34" height="34" viewBox="0 0 34 34" fill="none" xmlns="http://www.w3.org/2000/svg">
<rect width="34" height="34" rx="8" fill="#CC2229"/>
<path d="M9.9984 24.5C8.89383 24.5 8 23.6061 8 22.5016C8 19.0666 8 14.1954 8 11.496C8 10.3914 8.89681 9.5 10.0014 9.5C11.1975 9.5 12.1093 9.5 12.758 9.5C13.5537 9.5 14.3161 9.81607 14.8787 10.3787L15.4142 10.9142C15.7893 11.2893 16.298 11.5 16.8284 11.5H24C25.1046 11.5 26 12.3954 26 13.5V22.5C26 23.6046 25.108 24.5 24.0035 24.5C19.6165 24.5 13.2133 24.5 9.9984 24.5Z" fill="white"/>
</svg>
