<svg width="34" height="34" viewBox="0 0 34 34" fill="none" xmlns="http://www.w3.org/2000/svg">
<rect width="34" height="34" rx="8" fill="#A100CD"/>
<g clip-path="url(#clip0_14488_268980)">
<path d="M25.0999 17.9001C24.6028 17.9001 24.1999 18.303 24.1999 18.8001V19.7001C24.1999 20.1971 23.797 20.6001 23.2999 20.6001C22.8028 20.6001 22.3999 20.1971 22.3999 19.7001V18.9001C22.3999 18.3478 21.9522 17.9001 21.3999 17.9001H19.8999C18.7953 17.9001 17.8999 18.7955 17.8999 19.9001V25.1001C17.8999 25.5971 18.3028 26.0001 18.7999 26.0001H18.8749C19.3305 26.0001 19.6999 25.6307 19.6999 25.1751V21.9501C19.6999 21.453 20.1028 21.0501 20.5999 21.0501H20.7499C21.1641 21.0501 21.4999 21.3858 21.4999 21.8001C21.4999 22.1314 21.7685 22.4001 22.0999 22.4001H24.4999C25.3283 22.4001 25.9999 21.7285 25.9999 20.9001V18.8001C25.9999 18.303 25.597 17.9001 25.0999 17.9001Z" fill="white"/>
<rect x="10.7002" y="10.7" width="2.7" height="2.7" rx="1" fill="white"/>
<rect x="10.7002" y="20.6" width="2.7" height="2.7" rx="1" fill="white"/>
<rect x="24.2002" y="24.2" width="1.8" height="1.8" rx="0.900001" fill="white"/>
<rect x="21.5" y="24.2" width="1.8" height="1.8" rx="0.9" fill="white"/>
<rect x="20.6001" y="10.7" width="2.7" height="2.7" rx="1" fill="white"/>
<rect x="9" y="9" width="6.1" height="6.1" rx="1" stroke="white" stroke-width="2"/>
<rect x="9" y="18.9" width="6.1" height="6.1" rx="1" stroke="white" stroke-width="2"/>
<rect x="18.8999" y="9" width="6.1" height="6.1" rx="1" stroke="white" stroke-width="2"/>
</g>
<defs>
<clipPath id="clip0_14488_268980">
<rect width="18" height="18" fill="white" transform="translate(8 8)"/>
</clipPath>
</defs>
</svg>
