<svg width="34" height="34" viewBox="0 0 34 34" fill="none" xmlns="http://www.w3.org/2000/svg">
<rect width="34" height="34" rx="8" fill="#00CDA1"/>
<path fill-rule="evenodd" clip-rule="evenodd" d="M8 17H26V24C26 25.1046 25.1046 26 24 26H10C8.89543 26 8 25.1046 8 24V17ZM10 20C10 19.4477 10.4477 19 11 19H18C18.5523 19 19 19.4477 19 20C19 20.5523 18.5523 21 18 21H11C10.4477 21 10 20.5523 10 20ZM20 22C19.4477 22 19 22.4477 19 23C19 23.5523 19.4477 24 20 24H23C23.5523 24 24 23.5523 24 23C24 22.4477 23.5523 22 23 22H20Z" fill="white"/>
<path d="M20 8.99805C20 8.44684 20.4468 8 20.998 8C21.5493 8 21.9961 8.44684 21.9961 8.99805V11H24C25.1046 11 26 11.8954 26 13V15H8V13C8 11.8954 8.89543 11 10 11H12V8.99805C12 8.44684 12.4468 8 12.998 8C13.5493 8 13.9961 8.44684 13.9961 8.99805V11H20V8.99805Z" fill="white"/>
</svg>
