<?xml version="1.0" standalone="no"?>
<!DOCTYPE svg PUBLIC "-//W3C//DTD SVG 1.1//EN" "http://www.w3.org/Graphics/SVG/1.1/DTD/svg11.dtd" >
<svg xmlns="http://www.w3.org/2000/svg">
<metadata>
<json>
<![CDATA[
{
	"fontFamily": "UISmall",
	"majorVersion": 1,
	"minorVersion": 8,
	"copyright": "@PlanToBuild2023",
	"designer": "Victora Erickson & Zohar Ifergan",
	"version": "Version 1.8",
	"fontId": "UISmall",
	"psName": "UISmall",
	"subFamily": "Regular",
	"fullName": "UISmall",
	"description": "Font generated by IcoMoon."
}
]]>
</json>
</metadata>
<defs>
<font id="UISmall" horiz-adv-x="1024">
<font-face units-per-em="1024" ascent="960" descent="-64" />
<missing-glyph horiz-adv-x="1024" />
<glyph unicode="&#x20;" horiz-adv-x="512" d="" />
<glyph unicode="&#xe900;" glyph-name="Dock_Right" data-tags="Dock_Right" d="M625.778 789.333v-682.667h-227.556v682.667h227.556zM398.222 846.222c-31.419 0-56.889-25.47-56.889-56.889v-682.667c0-31.42 25.47-56.889 56.889-56.889h227.556c31.42 0 56.889 25.469 56.889 56.889v682.667c0 31.419-25.469 56.889-56.889 56.889h-227.556zM398.222 618.667h227.556v-56.889h-227.556v56.889zM398.222 334.222h227.556v-56.889h-227.556v56.889zM853.333 817.778c0 15.709 12.737 28.444 28.444 28.444s28.444-12.735 28.444-28.444v-739.556c0-15.707-12.737-28.444-28.444-28.444s-28.444 12.737-28.444 28.444v739.556z" />
<glyph unicode="&#xe901;" glyph-name="Dock_Top" data-tags="Dock_Top" d="M853.333 561.778v-227.556h-682.667v227.556h682.667zM170.667 618.667c-31.419 0-56.889-25.47-56.889-56.889v-227.556c0-31.42 25.47-56.889 56.889-56.889h682.667c31.42 0 56.889 25.469 56.889 56.889v227.556c0 31.419-25.469 56.889-56.889 56.889h-682.667zM625.778 561.778h56.889v-227.556h-56.889v227.556zM341.333 561.778h56.889v-227.556h-56.889v227.556zM113.778 817.778c0 15.709 12.735 28.444 28.444 28.444h739.556c15.707 0 28.444-12.735 28.444-28.444s-12.737-28.444-28.444-28.444h-739.556c-15.709 0-28.444 12.735-28.444 28.444z" />
<glyph unicode="&#xe902;" glyph-name="Dock_Bottom" data-tags="Dock_Bottom" d="M853.333 561.778v-227.556h-682.667v227.556h682.667zM170.667 618.667c-31.419 0-56.889-25.47-56.889-56.889v-227.556c0-31.42 25.47-56.889 56.889-56.889h682.667c31.42 0 56.889 25.469 56.889 56.889v227.556c0 31.419-25.469 56.889-56.889 56.889h-682.667zM625.778 561.778h56.889v-227.556h-56.889v227.556zM341.333 561.778h56.889v-227.556h-56.889v227.556zM113.778 78.222c0 15.707 12.735 28.444 28.444 28.444h739.556c15.707 0 28.444-12.737 28.444-28.444s-12.737-28.444-28.444-28.444h-739.556c-15.709 0-28.444 12.737-28.444 28.444z" />
<glyph unicode="&#xe903;" glyph-name="System" data-tags="System" d="M512 391.111c31.419 0 56.889 25.47 56.889 56.889s-25.47 56.889-56.889 56.889c-31.419 0-56.889-25.47-56.889-56.889s25.47-56.889 56.889-56.889zM739.556 448c0-125.673-101.882-227.556-227.556-227.556-125.676 0-227.556 101.882-227.556 227.556 0 125.676 101.88 227.556 227.556 227.556 125.673 0 227.556-101.88 227.556-227.556zM512 277.333c94.259 0 170.667 76.407 170.667 170.667 0 94.256-76.407 170.667-170.667 170.667-94.256 0-170.667-76.41-170.667-170.667 0-94.259 76.41-170.667 170.667-170.667zM512 49.778c219.932 0 398.222 178.29 398.222 398.222s-178.29 398.222-398.222 398.222c-219.932 0-398.222-178.29-398.222-398.222s178.29-398.222 398.222-398.222zM853.333 448c0-188.513-152.821-341.333-341.333-341.333s-341.333 152.821-341.333 341.333c0 188.513 152.82 341.333 341.333 341.333s341.333-152.82 341.333-341.333z" />
<glyph unicode="&#xe904;" glyph-name="Dock_Left" data-tags="Dock_Left" d="M625.778 789.333v-682.667h-227.556v682.667h227.556zM398.222 846.222c-31.419 0-56.889-25.47-56.889-56.889v-682.667c0-31.42 25.47-56.889 56.889-56.889h227.556c31.42 0 56.889 25.469 56.889 56.889v682.667c0 31.419-25.469 56.889-56.889 56.889h-227.556zM398.222 618.667h227.556v-56.889h-227.556v56.889zM398.222 334.222h227.556v-56.889h-227.556v56.889zM113.778 817.778c0 15.709 12.735 28.444 28.444 28.444s28.444-12.735 28.444-28.444v-739.556c0-15.707-12.735-28.444-28.444-28.444s-28.444 12.737-28.444 28.444v739.556z" />
<glyph unicode="&#xe905;" glyph-name="Supplies" data-tags="Supplies" d="M199.111 846.222c47.128 0 85.333-38.205 85.333-85.333v-113.778h512c31.42 0 56.889-25.47 56.889-56.889v-284.444h56.889v-56.889h-95.408c23.62-20.85 38.519-51.354 38.519-85.333 0-62.839-50.938-113.778-113.778-113.778s-113.778 50.938-113.778 113.778c0 33.98 14.899 64.484 38.519 85.333h-247.705c23.621-20.85 38.519-51.354 38.519-85.333 0-62.839-50.94-113.778-113.778-113.778s-113.778 50.938-113.778 113.778c0 35.209 15.991 66.679 41.108 87.552-23.742 6.838-41.108 28.729-41.108 54.67v455.111c0 15.709-12.735 28.444-28.444 28.444h-85.333v56.889h85.333zM284.444 590.222v-256c0-15.707 12.735-28.444 28.444-28.444h483.556v284.444h-113.778v-113.778c0-31.419-25.469-56.889-56.889-56.889h-170.667c-31.419 0-56.889 25.47-56.889 56.889v113.778h-113.778zM455.111 476.444h170.667v113.778h-170.667v-113.778zM341.333 106.667c31.419 0 56.889 25.469 56.889 56.889s-25.47 56.889-56.889 56.889c-31.419 0-56.889-25.469-56.889-56.889s25.47-56.889 56.889-56.889zM739.556 106.667c31.42 0 56.889 25.469 56.889 56.889s-25.469 56.889-56.889 56.889c-31.42 0-56.889-25.469-56.889-56.889s25.469-56.889 56.889-56.889z" />
<glyph unicode="&#xe906;" glyph-name="Archive" data-tags="Archive" d="M426.667 448c-15.709 0-28.444-12.735-28.444-28.444s12.735-28.444 28.444-28.444h170.667c15.707 0 28.444 12.735 28.444 28.444s-12.737 28.444-28.444 28.444h-170.667zM113.778 675.556c0-31.419 25.47-56.889 56.889-56.889v-512c0-31.42 25.47-56.889 56.889-56.889h568.889c31.42 0 56.889 25.469 56.889 56.889v512c31.42 0 56.889 25.47 56.889 56.889v113.778c0 31.419-25.469 56.889-56.889 56.889h-682.667c-31.419 0-56.889-25.47-56.889-56.889v-113.778zM853.333 789.333v-113.778h-682.667v113.778h682.667zM227.556 618.667h568.889v-512h-568.889v512z" />
<glyph unicode="&#xe907;" glyph-name="Key_Value" data-tags="Key_Value" d="M170.667 49.778c-26.183 0-56.889 29.4-56.889 56.889v682.667c0 27.492 30.706 56.889 56.889 56.889h170.667c26.183 0 56.889-29.397 56.889-56.889v-170.667h227.556c31.42 0 56.889-28.326 56.889-56.889v-113.778h170.667c26.18 0 56.889-29.397 56.889-56.889v-284.444c0-27.489-30.709-56.889-56.889-56.889h-682.667zM341.333 789.333h-170.667v-682.667h170.667v682.667zM682.667 391.111v-284.444h170.667v284.444h-170.667zM625.778 561.778h-227.556v-455.111h227.556v455.111z" />
<glyph unicode="&#xe908;" glyph-name="Summary" data-tags="Summary" d="M762.095 814.015l-22.255-166.907h142.046c15.713 0 28.444-12.735 28.444-28.444s-12.732-28.444-28.444-28.444h-149.635l-37.928-284.447h187.563c15.713 0 28.444-12.732 28.444-28.444 0-15.707-12.732-28.444-28.444-28.444h-195.146l-23.268-174.495c-2.076-15.57-16.384-26.51-31.954-24.434s-26.51 16.384-24.434 31.954l22.261 166.975h-287.782l-23.267-174.495c-2.076-15.57-16.383-26.51-31.954-24.434s-26.512 16.384-24.435 31.954l22.265 166.975h-141.948c-15.709 0-28.444 12.737-28.444 28.444 0 15.713 12.735 28.444 28.444 28.444h149.534l37.928 284.447h-187.461c-15.709 0-28.444 12.735-28.444 28.444s12.735 28.444 28.444 28.444h195.047l23.258 174.426c2.076 15.572 16.383 26.511 31.954 24.435s26.511-16.383 24.435-31.954l-22.256-166.907h287.783l23.262 174.426c2.076 15.572 16.378 26.511 31.954 24.435 15.57-2.076 26.51-16.383 24.434-31.954zM674.862 590.219h-287.786l-37.928-284.447h287.786l37.928 284.447z" />
<glyph unicode="&#xe909;" glyph-name="Lable" data-tags="Lable" horiz-adv-x="1081" d="M768 675.556h-455.111v-170.667h455.111v170.667zM369.778 561.778v56.889h341.333v-56.889h-341.333zM142.222 789.336c-0.006-227.557 0-455.113 0.001-682.669 0-31.42 25.47-56.889 56.889-56.889h682.666c31.42 0 56.889 25.469 56.889 56.889 0 227.556 0 455.112 0 682.667 0 31.419-25.469 56.888-56.889 56.888h-682.668c-31.418 0-56.888-25.469-56.888-56.887zM199.111 789.333h682.667v-682.667h-682.667v682.667zM768 391.111h-455.111v-170.667h455.111v170.667zM369.778 277.333v56.889h341.333v-56.889h-341.333z" />
<glyph unicode="&#xe90a;" glyph-name="Left_Align" data-tags="Left_Align" horiz-adv-x="1081" d="M170.667 846.222c-15.709 0-28.444-12.735-28.444-28.444v-739.556c0-15.707 12.735-28.444 28.444-28.444s28.444 12.737 28.444 28.444v739.556c0 15.709-12.735 28.444-28.444 28.444zM369.778 732.444h512c31.42 0 56.889-25.47 56.889-56.889v-113.778c0-31.419-25.469-56.889-56.889-56.889h-512c-31.419 0-56.889 25.47-56.889 56.889v113.778c0 31.419 25.47 56.889 56.889 56.889zM881.778 675.556h-512v-113.778h512v113.778zM369.778 391.111h398.222c31.42 0 56.889-25.469 56.889-56.889v-113.778c0-31.42-25.469-56.889-56.889-56.889h-398.222c-31.419 0-56.889 25.469-56.889 56.889v113.778c0 31.42 25.47 56.889 56.889 56.889zM768 334.222h-398.222v-113.778h398.222v113.778z" />
<glyph unicode="&#xe90b;" glyph-name="Middle_Align" data-tags="Middle_Align" horiz-adv-x="1081" d="M824.889 675.556v-113.778h-568.889v113.778h568.889zM256 732.444c-31.419 0-56.889-25.47-56.889-56.889v-113.778c0-31.419 25.47-56.889 56.889-56.889h568.889c31.42 0 56.889 25.47 56.889 56.889v113.778c0 31.419-25.469 56.889-56.889 56.889h-568.889zM768 334.222v-113.778h-455.111v113.778h455.111zM312.889 391.111c-31.419 0-56.889-25.469-56.889-56.889v-113.778c0-31.42 25.47-56.889 56.889-56.889h455.111c31.42 0 56.889 25.469 56.889 56.889v113.778c0 31.42-25.469 56.889-56.889 56.889h-455.111zM512 817.778c0 15.709 12.735 28.444 28.444 28.444s28.444-12.735 28.444-28.444v-739.556c0-15.707-12.735-28.444-28.444-28.444s-28.444 12.737-28.444 28.444v739.556z" />
<glyph unicode="&#xe90c;" glyph-name="Sound" data-tags="Sound" d="M113.778 542.815v-189.632c0-31.414 25.47-56.889 56.889-56.889h158.062c14.207 0 27.901-5.313 38.387-14.899l220.274-201.398c36.506-33.377 95.278-7.475 95.278 41.984v652.035c0 49.464-58.772 75.362-95.278 41.985l-220.274-201.395c-10.486-9.587-24.179-14.903-38.387-14.903h-158.062c-31.419 0-56.889-25.47-56.889-56.889zM170.667 542.815h158.062c28.415 0 55.802 10.633 76.774 29.806l220.275 201.395v-652.035l-220.275 201.398c-20.972 19.172-48.358 29.804-76.774 29.804h-158.062v189.632zM772.432 232.084c-16.964-5.484-32.876 8.346-32.876 26.169 0 13.932 9.961 25.634 22.949 30.669 53.146 20.605 90.829 72.226 90.829 132.65s-37.683 112.047-90.829 132.652c-12.988 5.036-22.949 16.736-22.949 30.666 0 17.826 15.912 31.657 32.876 26.172 79.957-25.857 137.791-100.92 137.791-189.491 0-88.573-57.833-163.632-137.791-189.488z" />
<glyph unicode="&#xe90d;" glyph-name="Sort" data-tags="Sort" d="M142.222 846.222c-15.709 0-28.444-12.735-28.444-28.444s12.735-28.444 28.444-28.444h739.556c15.707 0 28.444 12.735 28.444 28.444s-12.737 28.444-28.444 28.444h-739.556zM113.778 590.222c0 15.709 12.735 28.444 28.444 28.444h455.111c15.707 0 28.444-12.735 28.444-28.444s-12.737-28.444-28.444-28.444h-455.111c-15.71 0-28.444 12.735-28.444 28.444zM768 618.667c15.707 0 28.444-12.735 28.444-28.444v-443.329l65.223 65.223c11.105 11.105 29.116 11.105 40.226 0 11.105-11.11 11.105-29.121 0-40.232l-113.778-113.778c-11.11-11.105-29.121-11.105-40.226 0l-113.778 113.778c-11.11 11.11-11.11 29.121 0 40.232 11.105 11.105 29.116 11.105 40.226 0l65.217-65.223v443.329c0 15.709 12.732 28.444 28.444 28.444zM113.777 362.667c0.36 15.707 13.387 28.439 29.096 28.439h341.333c15.709 0 28.153-12.732 27.792-28.439s-13.387-28.439-29.096-28.439h-341.333c-15.71 0-28.153 12.732-27.793 28.439zM142.875 163.55c-15.709 0-28.736-12.732-29.096-28.439s12.083-28.439 27.793-28.439h227.554c15.709 0 28.736 12.732 29.096 28.439s-12.083 28.439-27.793 28.439h-227.554z" />
<glyph unicode="&#xe90e;" glyph-name="Right_Align" data-tags="Right_Align" horiz-adv-x="1081" d="M768 675.556v-113.778h-568.889v113.778h568.889zM199.111 732.444c-31.419 0-56.889-25.47-56.889-56.889v-113.778c0-31.419 25.47-56.889 56.889-56.889h568.889c31.42 0 56.889 25.47 56.889 56.889v113.778c0 31.419-25.469 56.889-56.889 56.889h-568.889zM768 334.222v-113.778h-455.111v113.778h455.111zM312.889 391.111c-31.419 0-56.889-25.469-56.889-56.889v-113.778c0-31.42 25.47-56.889 56.889-56.889h455.111c31.42 0 56.889 25.469 56.889 56.889v113.778c0 31.42-25.469 56.889-56.889 56.889h-455.111zM881.778 817.778c0 15.709 12.737 28.444 28.444 28.444s28.444-12.735 28.444-28.444v-739.556c0-15.707-12.737-28.444-28.444-28.444s-28.444 12.737-28.444 28.444v739.556z" />
<glyph unicode="&#xe90f;" glyph-name="Site" data-tags="Site" d="M113.778 662.504c0 21.143 11.725 40.541 30.445 50.369l224.345 117.781c18.302 9.609 40.375 8.533 57.656-2.807l171.553-112.581c17.283-11.341 39.356-12.415 57.657-2.807l171.457 90.015c37.877 19.887 83.331-7.408 83.331-50.191v-518.833c0-21.146-11.725-40.494-30.447-50.324l-224.341-117.777c-18.301-9.609-40.374-8.533-57.657 2.805l-171.553 112.583c-17.282 11.338-39.355 12.413-57.656 2.805l-171.457-90.015c-37.881-19.883-83.333 7.589-83.333 50.369v518.609zM853.333 752.104l-171.457-90.015c-8.858-4.65-18.153-8.049-27.654-10.209v-522.919l199.111 104.533v518.609zM566.564 667.704l-139.897 91.807v-517.051c10.754-3.112 21.134-7.839 30.769-14.165l145.586-95.539v519.294c-12.783 2.994-25.134 8.222-36.458 15.654zM375.467 770.024l-204.8-107.52v-518.609l171.457 90.015c10.619 5.575 21.873 9.353 33.343 11.355v524.758z" />
<glyph unicode="&#xe914;" glyph-name="Sidebar" data-tags="Sidebar" d="M910.222 106.667c0-31.42-25.321-56.889-56.741-56.821-207.701 0.432-549.573 2.913-683.455 3.925-31.241 0.239-56.249 25.628-56.249 56.872v678.69c0 31.419 25.47 56.889 56.889 56.889h682.667c31.42 0 56.889-25.47 56.889-56.889v-682.666zM853.333 789.333l-170.667 0.001v-681.967c61.548-0.302 120.087-0.529 170.667-0.631v682.598zM625.778 789.333l-455.111-0.001v-678.672c91.38-0.694 279.136-2.065 455.111-3.004v681.677z" />
<glyph unicode="&#xe915;" glyph-name="Share" data-tags="Share" horiz-adv-x="970" d="M727.579 587.421c66.97 0 121.263 54.291 121.263 121.263s-54.294 121.263-121.263 121.263c-66.97 0-121.263-54.291-121.263-121.263 0-8.728 0.922-17.241 2.673-25.447l-269.67-157.494c-22.137 29.283-57.255 48.205-96.793 48.205-66.972 0-121.263-54.291-121.263-121.263 0-66.97 54.291-121.264 121.263-121.264 38.929 0 73.574 18.346 95.762 46.861l270.669-156.273c-1.73-8.154-2.641-16.616-2.641-25.293 0-66.97 54.294-121.263 121.263-121.263s121.263 54.294 121.263 121.263c0 66.975-54.294 121.263-121.263 121.263-40.901 0-77.069-20.248-99.037-51.27l-268.707 155.142c2.58 9.845 3.955 20.179 3.955 30.833 0 10.040-1.22 19.793-3.52 29.123l268.375 156.739c21.978-30.938 58.099-51.125 98.935-51.125zM727.579 641.316c-37.209 0-67.368 30.162-67.368 67.368s30.159 67.368 67.368 67.368c37.209 0 67.368-30.162 67.368-67.368s-30.159-67.368-67.368-67.368zM309.895 452.684c0-37.204-30.162-67.369-67.368-67.369s-67.368 30.165-67.368 67.369c0 37.207 30.162 67.368 67.368 67.368s67.368-30.162 67.368-67.368zM794.947 196.716c0-37.204-30.159-67.368-67.368-67.368s-67.368 30.165-67.368 67.368c0 37.209 30.159 67.368 67.368 67.368s67.368-30.159 67.368-67.368z" />
<glyph unicode="&#xe916;" glyph-name="Section" data-tags="Section" d="M496.643 49.829c-46.986 0-86.781 11.196-118.166 33.297-31.629 22.255-47.656 48.236-47.656 77.255-0.114 6.758 1.49 13.454 4.71 19.678 3.22 6.218 7.987 11.827 13.999 16.464 12.615 10.052 28.338 15.383 45.584 15.383 17.124 0 32.543-4.978 44.609-14.438 11.884-9.307 17.917-21.652 17.917-36.636 0-8.812-1.768-18.517-5.241-28.871-2.274-5.877-3.666-11.964-4.144-18.119 0-2.884 0.853-6.269 7.374-9.904 12.127-6.872 26.753-10.155 44.609-10.155 21.513 0 40.648 6.121 58.626 18.665 17.671 12.396 26.267 25.139 26.267 38.929 0 15.332-5.001 28.621-15.36 40.619-17.488 20.008-50.336 43.503-97.687 69.734-76.055 41.569-126.697 77.608-154.791 110.063-21.817 25.435-32.848 52.813-32.848 81.435 0 28.822 11.579 57.494 34.371 85.27 19.501 23.744 48.387 45.198 85.927 63.865-20.111 17.671-35.163 34.297-44.853 49.529-11.926 18.218-18.263 38.527-18.465 59.185 0 37.184 17.977 69.341 53.506 95.573s79.833 39.574 131.695 39.574c47.718 0 87.814-10.951 119.199-32.555 31.755-21.853 47.844-47.388 47.844-75.861 0-14.535-6.645-27.527-19.746-38.628l-0.245-0.199c-7.617-6.172-21.515-13.49-44.794-13.49-18.222 0-34.185 4.878-46.194 14.087-5.666 4.089-10.2 9.115-13.312 14.744-3.11 5.63-4.721 11.734-4.725 17.91 0 5.376 1.645 13.54 5.117 25.635 1.707 5.725 2.56 11.001 2.56 15.73 0.142 3.725-0.796 7.423-2.731 10.796-1.939 3.373-4.824 6.325-8.42 8.617-7.861 5.376-19.136 8.015-34.432 8.015-23.706 0-43.147-5.874-59.418-17.97s-24.315-26.531-24.315-43.953c0-15.68 4.327-28.572 12.919-38.379 16.271-18.617 44.549-38.727 83.978-59.783 80.138-42.461 136.082-81.436 166.188-115.734 22.244-25.785 33.456-53.162 33.456-81.486 0-28.473-11.338-57.148-33.638-85.319-19.257-24.24-48.327-46.097-86.539-65.109 21.146-18.267 36.016-34.247 45.278-48.634 11.52-17.869 17.311-37.382 17.311-57.993 0-38.628-18.039-71.43-53.567-97.564-35.533-26.129-79.836-39.322-131.697-39.322l-0.061 0.051zM449.474 569.109c-45.889-22.5-68.255-48.384-68.255-78.798 0-17.721 6.216-33.55 18.892-48.434 18.953-21.703 56.432-48.284 111.218-78.801 23.219-12.891 44.121-25.435 62.463-37.382 46.746 22.949 69.473 48.486 69.473 77.904 0 16.028-7.737 33.252-23.034 51.271-16.026 18.816-50.335 43.406-102.015 73.024-23.459 13.104-46.385 26.883-68.742 41.216z" />
<glyph unicode="&#xe91c;" glyph-name="Search" data-tags="Search" d="M671.448 328.778c46.876 55.945 75.105 128.048 75.105 206.746 0 177.877-144.202 322.076-322.078 322.076-177.878 0-322.076-144.199-322.076-322.076 0-177.875 144.198-322.077 322.076-322.077 78.697 0 150.802 28.228 206.747 75.105l219.096-219.096c11.11-11.105 29.116-11.105 40.226 0.006 11.11 11.105 11.11 29.116 0 40.226l-219.096 219.090zM689.664 535.524c0-146.461-118.733-265.188-265.189-265.188-146.459 0-265.187 118.727-265.187 265.188 0 146.459 118.728 265.187 265.187 265.187 146.456 0 265.189-118.728 265.189-265.187z" />
<glyph unicode="&#xe91d;" glyph-name="Schedule" data-tags="Schedule" d="M227.556 391.111c0 15.709 12.735 28.444 28.444 28.444h341.333c15.707 0 28.444-12.735 28.444-28.444 0-15.707-12.737-28.444-28.444-28.444h-341.333c-15.709 0-28.444 12.737-28.444 28.444zM597.333 248.889c-15.707 0-28.444-12.737-28.444-28.444s12.737-28.444 28.444-28.444h170.667c15.707 0 28.444 12.737 28.444 28.444s-12.737 28.444-28.444 28.444h-170.667zM719.644 817.778v-91.347h124.206c36.659 0 66.372-30.363 66.372-68.066v-546.361c0-37.7-29.713-68.238-66.372-68.238h-663.702c-36.655 0-66.369 30.532-66.37 68.238l0.001 421.179-0.001 0.152 0.001 0.152v124.882c0.001 37.703 29.715 68.064 66.37 68.064h124.208v91.347c0 15.709 12.735 28.444 28.444 28.444s28.444-12.735 28.444-28.444v-91.347h301.511v91.347c0 15.709 12.737 28.444 28.444 28.444s28.444-12.735 28.444-28.444zM180.148 504.889l-0.001-392.858h663.702v392.858h-663.702zM843.85 561.778v96.386h-124.206v-11.053c0-15.709-12.737-28.444-28.444-28.444s-28.444 12.735-28.444 28.444v11.053h-301.511v-11.053c0-15.709-12.735-28.444-28.444-28.444s-28.444 12.735-28.444 28.444v11.053h-124.208v-96.386h663.702zM180 658.156c-0.001-0.001 0 0 0 0z" />
<glyph unicode="&#xe91e;" glyph-name="Save" data-tags="Save" d="M512 448c62.839 0 113.778-50.94 113.778-113.778s-50.938-113.778-113.778-113.778c-62.838 0-113.778 50.938-113.778 113.778 0 62.838 50.94 113.778 113.778 113.778zM455.111 334.222c0-31.42 25.47-56.889 56.889-56.889s56.889 25.469 56.889 56.889c0 31.42-25.47 56.889-56.889 56.889s-56.889-25.469-56.889-56.889zM731.022 846.222l179.2-170.667v-569.116c0-31.414-25.469-56.661-56.889-56.661h-682.667c-31.419 0-56.889 25.469-56.889 56.889v682.667c0 31.419 25.23 56.889 56.649 56.889h560.596zM341.333 789.333h-170.667v-682.667h682.667v544.508l-145.067 138.159h-25.6v-170.667c0-31.419-25.469-56.889-56.889-56.889h-227.556c-31.419 0-56.889 25.47-56.889 56.889v170.667zM398.222 789.333v-170.667h227.556v170.667h-227.556z" />
<glyph unicode="&#xe925;" glyph-name="waste" data-tags="waste" d="M668.444 816.632c0-15.709-12.732-28.444-28.444-28.444h-255.998c-15.709 0-28.444 12.735-28.444 28.444s12.735 28.444 28.444 28.444h255.998c15.713 0 28.444-12.735 28.444-28.444zM632.678 454.904c-11.105 11.108-29.116 11.108-40.226 0l-80.452-80.456-79.675 79.678c-11.538 11.538-30.244 11.538-41.782 0s-11.538-30.244 0-41.782l79.676-79.675-78.898-78.899c-11.108-11.105-11.108-29.116 0-40.226 11.108-11.105 29.119-11.105 40.227 0l78.897 78.899 79.675-79.679c11.537-11.537 30.242-11.537 41.785 0 11.537 11.543 11.537 30.248 0 41.785l-79.678 79.673 80.452 80.455c11.11 11.108 11.11 29.118 0 40.227zM883.137 610.616c15.679-0.002 27.773 12.747 27.017 28.475-0.751 15.728-14.063 28.479-29.736 28.48l-738.767 0.072c-15.673 0.002-27.769-12.747-27.017-28.475s14.068-28.479 29.742-28.48l82.787-0.008v-537.645c0-31.42 25.305-56.644 56.724-56.644h453.592c31.42 0 56.764 25.225 56.764 56.644v537.59l88.895-0.009zM284.052 609.684h453.302v-536.406h-453.302v536.406z" />
<glyph unicode="&#xe928;" glyph-name="Weather" data-tags="Weather" d="M412.444 696.889c0 82.475-66.859 149.333-149.333 149.333s-149.333-66.859-149.333-149.333c0-82.475 66.859-149.333 149.333-149.333s149.333 66.859 149.333 149.333zM355.556 696.889c0-51.056-41.389-92.444-92.444-92.444s-92.444 41.389-92.444 92.444c0 51.056 41.389 92.444 92.444 92.444s92.444-41.389 92.444-92.444zM760.889 423.111v323.556c0 54.983-44.572 99.556-99.556 99.556s-99.555-44.572-99.555-99.556v-323.556c-174.221-99.556-124.444-373.333 99.555-373.333s273.778 273.778 99.556 373.333zM704 423.111c0-20.415 10.94-39.265 28.666-49.391 63.551-36.318 85.84-103.35 72.346-161.815-12.954-56.144-59.244-105.239-143.679-105.239-84.429 0-130.722 49.095-143.678 105.239-13.492 58.465 8.798 125.497 72.351 161.815 17.721 10.126 28.661 28.976 28.661 49.391v323.556c0 23.564 19.103 42.667 42.667 42.667s42.667-19.103 42.667-42.667v-323.556z" />
<glyph unicode="&#xe92a;" glyph-name="Wind" data-tags="Wind" d="M512 732.444c28.984 62.501 96.085 113.778 170.667 113.778 101.746 0 170.667-75.952 170.667-170.667s-68.921-170.667-170.667-170.667h-542.894c-14.356 0-25.995 14.979-25.995 28.444s11.639 28.444 25.995 28.444h542.894c74.018 0 113.778 46.909 113.778 113.778s-39.76 113.778-113.778 113.778c-54.135 0-102.36-31.853-122.99-76.337-5.726-12.348-21.041-18.004-34.207-12.633s-19.197 19.734-13.47 32.082zM170.667 419.556c0 15.709 12.735 28.444 28.444 28.444h682.667c15.707 0 28.444-12.735 28.444-28.444s-12.737-28.444-28.444-28.444h-682.667c-15.709 0-28.444 12.735-28.444 28.444zM252.29 334.222c-13.66 0-24.734-15.349-24.734-28.444 0-13.090 11.074-28.444 24.734-28.444h401.933c58.647 0 85.333-33.917 85.333-85.333s-26.687-85.333-85.333-85.333c-58.647 0-113.778 28.279-113.778 79.696 0 13.096-14.784 28.444-28.444 28.444s-28.444-15.349-28.444-28.444c0-79.491 86.721-136.585 170.667-136.585s142.222 62.726 142.222 142.222c0 79.497-58.277 142.222-142.222 142.222h-401.933z" />
<glyph unicode="&#xe92d;" glyph-name="Window" data-tags="Window" d="M170.667 98.941h-32.307c-13.576 0-24.582-11.008-24.582-24.582s11.006-24.582 24.582-24.582h747.281c13.574 0 24.582 11.008 24.582 24.582s-11.008 24.582-24.582 24.582h-32.307v690.692c0 31.419-25.469 56.589-56.889 56.589h-568.889c-31.419 0-56.889-25.47-56.889-56.889v-690.392zM227.556 106.667v369.778h259.556v-369.778h-259.556zM544 106.667v369.778h252.444v-369.778h-252.444zM544 533.333v256h252.444v-256h-252.444zM227.556 533.333v256h259.556v-256h-259.556z" />
<glyph unicode="&#xe932;" glyph-name="Workflow" data-tags="Workflow" d="M625.778 732.444c0 62.838-50.938 113.778-113.778 113.778-62.838 0-113.778-50.94-113.778-113.778 0-53.016 36.26-97.563 85.333-110.193v-117.362h-256c-15.709 0-28.444-12.735-28.444-28.444v-202.695c-49.073-12.629-85.333-57.179-85.333-110.194 0-62.839 50.94-113.778 113.778-113.778s113.778 50.938 113.778 113.778c0 53.015-36.26 97.564-85.333 110.194v174.251h227.556v-174.251c-49.073-12.629-85.333-57.179-85.333-110.194 0-62.839 50.94-113.778 113.778-113.778s113.778 50.938 113.778 113.778c0 53.015-36.261 97.564-85.333 110.194v174.251h227.556v-174.251c-49.072-12.629-85.333-57.179-85.333-110.194 0-62.839 50.938-113.778 113.778-113.778s113.778 50.938 113.778 113.778c0 53.015-36.261 97.564-85.333 110.194v202.695c0 15.709-12.737 28.444-28.444 28.444h-256v117.362c49.072 12.63 85.333 57.177 85.333 110.193zM568.889 732.444c0-31.419-25.47-56.889-56.889-56.889s-56.889 25.47-56.889 56.889c0 31.419 25.47 56.889 56.889 56.889s56.889-25.47 56.889-56.889zM796.444 220.444c31.42 0 56.889-25.469 56.889-56.889s-25.469-56.889-56.889-56.889c-31.42 0-56.889 25.469-56.889 56.889s25.469 56.889 56.889 56.889zM455.111 163.556c0 31.42 25.47 56.889 56.889 56.889s56.889-25.469 56.889-56.889c0-31.42-25.47-56.889-56.889-56.889s-56.889 25.469-56.889 56.889zM227.556 106.667c-31.419 0-56.889 25.469-56.889 56.889s25.47 56.889 56.889 56.889c31.419 0 56.889-25.469 56.889-56.889s-25.47-56.889-56.889-56.889z" />
<glyph unicode="&#xe933;" glyph-name="Tag" data-tags="Tag" d="M657.118 618.667l176.987-199.111-176.987-199.111h-486.451v398.222h486.451zM170.667 675.556c-31.419 0-56.889-25.47-56.889-56.889v-398.222c0-31.42 25.47-56.889 56.889-56.889h486.451c16.253 0 31.727 6.946 42.519 19.092l176.993 199.111c19.154 21.556 19.154 54.038 0 75.592l-176.993 199.111c-10.792 12.145-26.266 19.094-42.519 19.094h-486.451z" />
<glyph unicode="&#xe944;" glyph-name="Team" data-tags="Team" d="M801.343 387.078c17.414-1.633 33.684-7.475 49.323-17.527 17.778-12.004 32.887-29.002 43.56-49.004 10.661-20.998 15.997-42.997 15.997-66.998v-98.89c0-14-4.443-24.997-12.447-33.997-8.886-10.001-18.665-14-30.219-14h-175.519c-10.934 0-18.011 12.032-14.746 22.465 3.533 11.304 5.376 23.404 5.376 36.198v108.225c0 18.796-2.304 37.882-6.906 56.383-1.149 4.602-2.435 9.165-3.863 13.682-2.332 7.384 1.428 15.974 7.612 21.823 4.773 4.511 10.98 7.39 16.936 6.81 4.813-0.466 9.7-0.7 14.666-0.7 22.221 0 43.554 5.001 64.887 16.003h15.11c3.459 0 6.866-0.159 10.234-0.472zM819.354 322.042c-9.865 6.229-18.688 8.619-28.245 8.619h-2.423c-17.101-7.361-34.52-12.112-52.292-14.399 2.111-14.217 3.163-28.53 3.163-42.712v-108.225c0-0.592 0-1.183-0.006-1.775h113.783v89.998c0 14.825-3.129 27.853-9.574 40.721-6.411 11.844-15.081 21.356-24.405 27.773zM622.956 145.988c-2.651-8.42-7.122-15.741-13.175-22.215-11.429-12.225-24.001-17.112-38.861-17.112h-402.285c-16 0-28.572 4.887-38.857 17.112-11.428 10.997-16 24.439-16 41.552v108.225c0 29.332 6.857 56.223 20.572 81.886 13.714 24.445 32 45.224 56 59.89 22.857 14.667 49.143 22 76.571 22h19.429c5.292-2.707 10.63-5.116 16.023-7.238 21.399-8.42 43.673-12.318 67.405-12.318 21.852 0 43.036 3.575 64.062 11.271 6.465 2.367 12.916 5.123 19.367 8.285h19.429c27.428 0 52.571-7.334 76.571-22 15.033-9.647 28.586-21.937 40.003-36.173 5.939-7.413 11.304-15.349 15.997-23.717 6.821-12.76 11.941-25.828 15.371-39.344 3.465-13.665 5.2-27.796 5.2-42.542v-108.225c0-0.91-0.017-1.803-0.046-2.685-0.228-6.172-1.212-11.651-2.736-16.532zM555.308 328.107c-3.092 5.45-6.608 10.621-10.483 15.457-7.562 9.432-16.36 17.397-25.824 23.546-15.317 9.25-30.103 13.329-46.366 13.329h-7.070c-31.195-13.289-63.015-19.558-95.787-19.558-33.26 0-65.288 6.081-96.159 19.558h-6.698c-17.132 0-32.647-4.523-45.848-12.993l-0.525-0.336-0.533-0.324c-14.106-8.624-25.969-21.379-35.761-38.673-9.182-17.362-13.586-34.907-13.586-54.562v-108.225c0-0.705 0.019-1.291 0.047-1.775h398.073c0.048 0.341 0.103 0.916 0.103 1.775v108.225c0 19.655-4.402 37.194-13.581 54.556zM443.927 494.215c-4.939-2.53-10.028-4.815-15.253-6.839-4.292-1.662-8.674-3.148-13.138-4.448-14.498-4.223-29.857-6.491-45.758-6.491-16.729 0-32.858 2.511-48.015 7.167-3.379 1.038-6.71 2.183-9.989 3.43-5.538 2.107-10.926 4.507-16.145 7.181-51.032 26.143-85.851 78.429-85.851 138.667 0 86.402 71.634 156.444 160 156.444s160-70.043 160-156.444c0-60.238-34.819-112.524-85.851-138.667zM784.862 444.438c-2.862-2.17-5.82-4.216-8.863-6.132-6.548-4.124-13.494-7.642-20.764-10.479-13.716-5.35-28.587-8.278-44.123-8.278-3.374 0-6.713 0.138-10.018 0.408-9.887 0.81-19.45 2.81-28.553 5.859-49.852 16.699-85.874 64.889-85.874 121.733 0 70.692 55.717 128 124.444 128s124.444-57.308 124.444-128c0-42.299-19.945-79.806-50.694-103.111zM369.778 732.438c-58.159 0-103.111-45.771-103.111-99.556s44.952-99.556 103.111-99.556c58.159 0 103.111 45.771 103.111 99.556s-44.952 99.556-103.111 99.556zM711.111 618.66c-35.812 0-67.556-30.316-67.556-71.111s31.744-71.111 67.556-71.111c35.812 0 67.556 30.316 67.556 71.111s-31.744 71.111-67.556 71.111z" />
<glyph unicode="&#xe945;" glyph-name="Tiles_View" data-tags="Tiles_View" d="M113.778 817.778v-284.444c0-15.709 12.735-28.444 28.444-28.444h284.444c15.709 0 28.444 12.735 28.444 28.444v284.444c0 15.709-12.735 28.444-28.444 28.444h-284.444c-15.709 0-28.444-12.735-28.444-28.444zM170.667 561.778v227.556h227.556v-227.556h-227.556zM568.889 817.778v-284.444c0-15.709 12.737-28.444 28.444-28.444h284.444c15.707 0 28.444 12.735 28.444 28.444v284.444c0 15.709-12.737 28.444-28.444 28.444h-284.444c-15.707 0-28.444-12.735-28.444-28.444zM625.778 561.778v227.556h227.556v-227.556h-227.556zM142.222 391.111h284.444c15.709 0 28.444-12.737 28.444-28.444v-284.444c0-15.707-12.735-28.444-28.444-28.444h-284.444c-15.709 0-28.444 12.737-28.444 28.444v284.444c0 15.707 12.735 28.444 28.444 28.444zM170.667 334.222v-227.556h227.556v227.556h-227.556zM568.889 362.667v-284.444c0-15.707 12.737-28.444 28.444-28.444h284.444c15.707 0 28.444 12.737 28.444 28.444v284.444c0 15.707-12.737 28.444-28.444 28.444h-284.444c-15.707 0-28.444-12.737-28.444-28.444zM625.778 106.667v227.556h227.556v-227.556h-227.556z" />
<glyph unicode="&#xe948;" glyph-name="Time" data-tags="Time" d="M483.556 425.243c0-9.751 4.906-18.355 12.384-23.48 1.124-0.903 2.331-1.731 3.619-2.475l98.537-56.891c13.602-7.851 30.999-3.191 38.855 10.416 7.851 13.602 3.191 30.999-10.411 38.853l-86.096 49.706v211.426c0 15.709-12.735 28.444-28.444 28.444s-28.444-12.735-28.444-28.444v-227.556zM910.222 448c0 219.932-178.29 398.222-398.222 398.222s-398.222-178.29-398.222-398.222c0-219.932 178.29-398.222 398.222-398.222s398.222 178.29 398.222 398.222zM853.333 448c0-188.513-152.821-341.333-341.333-341.333s-341.333 152.821-341.333 341.333c0 188.513 152.82 341.333 341.333 341.333s341.333-152.82 341.333-341.333z" />
<glyph unicode="&#xe94a;" glyph-name="Training" data-tags="Training" d="M760.377 220.444l67.3-116.565c7.856-13.608 3.191-31.004-10.411-38.855-13.602-7.856-30.999-3.197-38.855 10.411l-83.723 145.010h-158.056v-142.222c0-15.707-12.735-28.444-28.444-28.444s-28.444 12.737-28.444 28.444v142.222h-161.864l-83.722-145.010c-7.855-13.608-25.251-18.267-38.856-10.411-13.604 7.851-18.266 25.247-10.411 38.855l67.3 116.565h-81.522c-31.419 0-56.889 25.469-56.889 56.889v512c0 31.419 25.47 56.889 56.889 56.889h682.667c31.42 0 56.889-25.47 56.889-56.889v-512c0-31.42-25.469-56.889-56.889-56.889h-92.956zM853.333 789.333h-682.667v-398.222h682.667v398.222zM170.667 277.333h682.667v56.889h-682.667v-56.889z" />
<glyph unicode="&#xe94f;" glyph-name="Transmittals" data-tags="Transmittals" d="M170.667 106.667v648.48l325.555-217.037c9.554-6.369 22.002-6.369 31.556 0l325.555 217.037v-193.369c0-15.709 12.737-28.444 28.444-28.444s28.444 12.735 28.444 28.444v227.556c0 29.002-29.4 56.889-56.889 56.889h-682.667c-27.492 0-56.889-27.887-56.889-56.889v-682.667c0-29.002 29.397-56.889 56.889-56.889h341.333c15.709 0 28.444 12.737 28.444 28.444s-12.735 28.444-28.444 28.444h-341.333zM512 595.963l-290.054 193.37h580.108l-290.054-193.37zM720.873 104.647l181.020 181.020c11.105 11.105 11.105 29.116 0 40.226l-181.020 181.018c-11.11 11.108-29.121 11.108-40.226 0-11.11-11.108-11.11-29.118 0-40.227l132.46-132.463h-340.929c-15.709 0-28.444-12.732-28.444-28.444 0-15.707 12.735-28.444 28.444-28.444h340.929l-132.46-132.46c-11.11-11.11-11.11-29.116 0-40.226 11.105-11.11 29.116-11.11 40.226 0z" />
<glyph unicode="&#xe956;" glyph-name="Trash" data-tags="Trash" d="M640 788.188c15.713 0 28.444 12.735 28.444 28.444s-12.732 28.444-28.444 28.444h-255.998c-15.71 0-28.444-12.735-28.444-28.444s12.735-28.444 28.444-28.444h255.998zM426.667 489.999c15.709 0 28.444-12.735 28.444-28.444v-227.553c0-15.713-12.735-28.444-28.444-28.444s-28.444 12.732-28.444 28.444v227.553c0 15.709 12.735 28.444 28.444 28.444zM625.778 461.554c0 15.709-12.737 28.444-28.444 28.444s-28.444-12.735-28.444-28.444v-227.553c0-15.713 12.737-28.444 28.444-28.444s28.444 12.732 28.444 28.444v227.553zM910.16 639.038c0.722-15.728-11.395-28.452-27.073-28.422l-88.843 0.174v-512.548c0-31.42-25.344-56.684-56.764-56.684h-453.592c-31.419 0-56.724 25.264-56.724 56.684v513.656l-82.775 0.162c-15.675 0.031-28.968 12.805-29.691 28.533s11.397 28.452 27.071 28.422l738.701-1.443c15.673-0.031 28.968-12.805 29.69-28.533zM737.354 609.685h-453.301v-511.239h453.301v511.239z" />
<glyph unicode="&#xe957;" glyph-name="UnLink" data-tags="UnLink" d="M454.108 596.416l38.718-38.649c-14.855-17.797-25.182-44.8-28.031-85.745-0.92-13.222-11.54-24.021-24.795-24.021s-24.076 10.877-23.457 24.118c2.845 60.785 16.695 99.561 37.564 124.298zM812.429 329.165l38.682-38.618c27.443 26.669 44.89 73.877 44.89 157.452 0 191.998-95.994 191.999-191.859 192.001l-96.14-0.001c-34.202 0-68.404 0-98.265-8.682l42.369-42.293c18.325 3.089 37.691 3.054 56.179 2.975l95.569 0.001c66.464 0.283 144.147-0.001 144.147-144.001 0-63.763-13.798-99.14-35.571-118.835zM745.722 305.325l44.531-44.454c-19.552-3.834-40.602-4.666-62.054-4.832-13.299-0.109-24.096 10.72-24.134 24.019-0.032 13.254 10.637 23.93 23.878 24.333 6.016 0.179 11.955 0.467 17.779 0.934zM607.459 423.881c-7.837-167.881-99.389-167.881-191.459-167.881h-96.133c-95.865 0-191.865 0-191.866 192.001-0.001 175.983 80.652 190.664 167.928 191.888 13.228 0.186 23.968-10.593 24.005-23.822 0.036-13.281-10.73-23.938-24.007-24.259-64.15-1.549-119.926-15.644-119.926-143.808 0.001-143.999 72.001-143.999 144.432-143.999h95.567c62.545-0.269 134.888-0.032 143.209 119.978 0.916 13.223 11.537 24.022 24.792 24.022s24.076-10.878 23.458-24.118zM183.442 821.381c12.515 12.478 32.801 12.472 45.309-0.013l656.419-655.246c12.508-12.486 12.502-32.723-0.013-45.201s-32.801-12.472-45.309 0.013l-656.419 655.246c-12.508 12.486-12.502 32.723 0.013 45.201z" />
<glyph unicode="&#xe958;" glyph-name="Pdf" data-tags="Pdf" d="M891.574 383.909c9.324-12.459 15.542-28.041 18.648-46.734 0-21.806-6.218-40.499-18.648-56.075s-34.19-21.806-59.056-21.806c-24.86 0-55.945 3.112-93.241 15.576-37.296 12.459-74.593 28.035-105.671 46.729-43.514-9.347-115.001-28.035-208.243-59.193l-46.621-15.576c-37.297-65.422-71.486-112.156-99.458-143.309-27.973-31.158-55.946-49.846-83.918-52.964-24.865-3.118-46.622 3.118-62.162 18.694s-21.757 34.27-18.648 52.964c12.432 49.846 71.485 105.921 183.376 165.114 37.297 65.428 80.81 155.774 130.54 274.161-15.54 56.078-24.865 102.81-27.973 140.195-6.216 40.501-6.216 74.771 3.108 102.81 3.108 18.693 15.54 31.155 37.297 37.386s43.513 6.23 65.27-3.116c18.648-9.346 31.081-28.039 37.297-56.078 6.216-24.924 6.216-56.078 0-93.463-3.108-24.924-9.324-56.078-18.649-96.579l-3.108-9.346c31.081-81.002 77.703-140.195 139.865-177.58 121.213 15.577 198.918 9.346 229.996-21.808zM179.825 106.633c0-3.112 3.108 0 15.54 9.347 9.324 6.235 21.757 18.694 34.189 37.387 18.649 18.694 37.297 46.729 59.054 80.998l-9.324-9.341c-55.946-49.852-90.134-90.351-99.458-118.391zM475.092 801.379v-3.116c-6.216 0-6.216-18.693-6.216-56.078s3.108-68.54 12.432-90.348c9.324 15.577 12.432 43.616 12.432 87.232 0 40.501-6.216 62.309-18.648 62.309zM388.065 302.905l40.405 18.694c65.269 24.923 118.106 43.617 155.403 49.852-43.512 31.152-80.809 74.768-108.782 130.846-31.081-84.117-62.161-149.54-87.026-199.392zM863.602 321.599c6.218 3.118 3.106 6.235-3.106 12.464-6.218 6.229-18.654 9.347-37.302 15.576-24.86 3.118-55.945 3.118-93.241 0 31.084-15.576 62.162-24.923 87.029-28.041 15.536-6.229 27.972-6.229 37.296-3.112 3.106 0 6.218 0 9.324 3.112z" />
<glyph unicode="&#xe960;" glyph-name="Accident" data-tags="Accident" d="M457.925 794.594l-157.48-481.722c-9.083-27.785 4.368-57.93 31.114-69.729l111.563-49.209c43.879-19.354 93.877-19.354 137.754 0l111.565 49.209c26.743 11.799 40.198 41.944 31.113 69.729l-157.482 481.723c-17.092 52.282-91.054 52.281-108.146-0.001zM577.502 576.551l39.299-120.217c-64.115-39.71-145.489-39.709-209.604 0.001l39.3 120.216c42.12-16.222 88.884-16.222 131.005-0.001zM389.121 401.043c76.432-41.841 169.325-41.841 245.759-0.001l34.6-105.846-111.561-49.209c-29.253-12.908-62.585-12.908-91.837 0l-111.563 49.209 34.603 105.847zM559.788 630.731c-30.581-12.611-65-12.61-95.58 0.001l47.79 146.185 47.791-146.186zM164.712 302.797l158.317 79.161-22.584-69.086c-0.725-2.219-1.306-4.449-1.749-6.684l-108.543-54.272 263.793-117.242c45.417-20.184 97.377-19.57 142.306 1.69l244.161 115.519-117.333 62.453-25.509 78.020 169.569-90.257c41.296-21.976 39.89-81.636-2.395-101.643l-244.167-115.519c-59.9-28.336-129.18-29.161-189.736-2.247l-263.793 117.242c-43.934 19.524-45.339 81.368-2.337 102.866z" />
<glyph unicode="&#xe969;" glyph-name="Activity" data-tags="Activity" d="M435.199 857.6c-14.139 0-25.6-11.462-25.6-25.6s11.461-25.6 25.6-25.6h153.601c14.136 0 25.6 11.462 25.6 25.6s-11.464 25.6-25.6 25.6h-153.601zM120.501 679.689c-9.997-9.997-9.997-26.206 0-36.204s26.206-9.997 36.204 0l108.612 108.612c9.997 9.997 9.997 26.206 0 36.204s-26.207 9.998-36.204 0l-108.612-108.612zM749.896 788.298c9.999 9.997 26.209 9.997 36.204 0l108.616-108.612c9.994-9.998 9.994-26.207 0-36.204-9.999-9.997-26.209-9.997-36.204 0l-108.616 108.612c-9.994 9.997-9.994 26.206 0 36.204zM563.2 396.8c0-28.278-22.922-51.2-51.201-51.2-28.277 0-51.2 22.922-51.2 51.2 0 18.949 10.296 35.497 25.6 44.349v134.851c0 14.138 11.461 25.6 25.6 25.6 14.137 0 25.601-11.462 25.601-25.6v-134.851c15.304-8.852 25.6-25.4 25.6-44.349zM870.4 396.8c0 197.939-160.461 358.4-358.401 358.4s-358.4-160.461-358.4-358.4c0-197.939 160.461-358.4 358.4-358.4s358.401 160.461 358.401 358.4zM819.2 396.8c0-169.661-137.539-307.2-307.201-307.2s-307.2 137.539-307.2 307.2c0 169.662 137.538 307.2 307.2 307.2s307.201-137.538 307.201-307.2z" />
<glyph unicode="&#xe96a;" glyph-name="Attached" data-tags="Attached" d="M393.733 713.064c14.861 23.353 40.514 42.278 89.821 42.278s74.96-18.923 89.818-42.275c16.208-25.465 21.823-59.958 21.823-92.71v-326.861c0-4.187-2.947-15.593-11.281-26.010-7.612-9.512-17.545-15.588-30.318-15.588s-22.709 6.076-30.32 15.588c-8.332 10.416-11.278 21.823-11.278 26.010v311.116c0 0.002 0 0.003-28.444 0.003l-28.444-0.052v-311.066c0-19.16 8.728-42.78 23.744-61.548 15.736-19.666 40.822-36.938 74.743-36.938 33.919 0 59.007 17.271 74.743 36.938 15.013 18.768 23.745 42.388 23.745 61.548v326.861c0 37.29-6.064 84.512-30.714 123.252-25.998 40.852-70.386 68.623-137.816 68.622s-111.819-27.773-137.816-68.624c-24.653-38.741-30.713-85.963-30.713-123.253l0.001-326.858c0-63.898 19.206-123.858 60.075-168.135 41.213-44.646 101.79-70.434 178.495-70.434s137.281 25.788 178.497 70.434c40.869 44.277 60.075 104.238 60.075 168.135v256.819c0 15.709-12.737 28.444-28.444 28.444-15.713 0-28.444-12.735-28.444-28.444v-256.819c0-52.838-15.815-97.94-44.988-129.547-28.831-31.232-73.318-52.133-136.695-52.133-63.378 0-107.865 20.901-136.693 52.133-29.173 31.607-44.988 76.754-44.988 129.593l-26.355-0.046c26.355 0 26.355 0.046 26.355 0.046l-0.001 326.812c0 32.752 5.614 67.246 21.819 92.71zM483.553 633.058c-15.709 0-28.444-12.787-28.444-28.497l56.889 0.049c0 15.709-12.735 28.447-28.444 28.447z" />
<glyph unicode="&#xe96c;" glyph-name="BOM" data-tags="BOM" d="M460.8 277.464h-34.133c0-33.94 25.088-62.766 59.733-72.437v-41.341h51.2v41.341c34.645 9.671 59.733 38.497 59.733 72.437 0 52.719-45.056 65.234-81.237 75.287-37.547 10.047-55.296 17.636-55.296 38.492 0 20.48 23.381 37.926 51.2 37.926s51.2-17.446 51.2-37.926h34.133c0 33.944-25.088 62.767-59.733 72.438v41.339h-51.2v-41.339c-34.645-9.671-59.733-38.494-59.733-72.438 0-52.714 45.056-65.23 81.237-75.282 37.547-10.052 55.296-17.636 55.296-38.497 0-20.48-23.381-37.922-51.2-37.922s-51.2 17.442-51.2 37.922zM796.444 618.667v-512.040c0-31.42-25.469-56.849-56.889-56.849h-455.111c-31.419 0-56.889 25.469-56.889 56.889v682.667c0 31.419 25.377 56.889 56.796 56.889h284.537l227.556-227.556zM568.889 765.768v-147.102h147.103l-147.103 147.102zM739.556 106.667v455.111h-199.111c-15.709 0-28.444 12.735-28.444 28.444v199.111h-227.556v-682.667h455.111z" />
<glyph unicode="&#xe96d;" glyph-name="Building" data-tags="Building" d="M227.556 789.333c0 31.419 25.47 56.889 56.889 56.889h455.111c31.42 0 56.889-25.17 56.889-56.589v-682.966h85.333c15.707 0 28.444-12.737 28.444-28.444s-12.737-28.444-28.444-28.444h-739.556c-15.709 0-28.444 12.737-28.444 28.444s12.735 28.444 28.444 28.444h85.333v682.667zM284.444 106.667h455.111v170.667h-455.111v-170.667zM739.556 334.222v113.778h-455.111v-113.778h455.111zM739.556 504.889v113.778h-455.111v-113.778h455.111zM739.556 675.556v113.778h-455.111v-113.778h455.111z" />
<glyph unicode="&#xe970;" glyph-name="Camera" data-tags="Camera" d="M682.667 391.111c0 94.256-76.407 170.667-170.667 170.667-94.256 0-170.667-76.41-170.667-170.667 0-94.259 76.41-170.667 170.667-170.667 94.259 0 170.667 76.407 170.667 170.667zM625.778 391.111c0-62.839-50.938-113.778-113.778-113.778-62.838 0-113.778 50.938-113.778 113.778 0 62.838 50.94 113.778 113.778 113.778s113.778-50.94 113.778-113.778zM170.667 732.444c-31.419 0-56.889-25.47-56.889-56.889v-568.889c0-31.42 25.47-56.889 56.889-56.889h682.667c31.42 0 56.889 25.469 56.889 56.889v568.889c0 31.419-25.469 56.889-56.889 56.889h-167.111l-57.816 88.102c-10.519 16.024-28.393 25.676-47.565 25.676h-137.685c-19.167 0-37.045-9.652-47.561-25.676l-57.817-88.102h-167.111zM170.667 675.556h197.823l74.667 113.778h137.685l74.667-113.778h197.825v-568.889h-682.667v568.889z" />
<glyph unicode="&#xe972;" glyph-name="Check_Mark_Icon" data-tags="Check_Mark_Icon" d="M798.401 752.084c26.556-16.79 34.475-51.929 17.681-78.486l-323.711-512c-9.868-15.61-26.698-25.458-45.139-26.414s-36.198 7.1-47.628 21.606l-188.286 238.931c-19.447 24.677-15.206 60.447 9.471 79.893s60.447 15.206 79.894-9.471l138.502-175.76 280.732 444.018c16.788 26.556 51.928 34.473 78.484 17.683z" />
<glyph unicode="&#xe975;" glyph-name="Close" data-tags="Close" d="M230.414 735.303c-18.662-18.662-18.662-48.919 0-67.581l214.005-214.005-214.005-214.005c-18.662-18.66-18.662-48.919 0-67.578 18.662-18.665 48.919-18.665 67.581 0l214.005 214.005 214.005-214.005c18.66-18.665 48.919-18.665 67.578 0 18.665 18.66 18.665 48.919 0 67.578l-214.005 214.005 214.005 214.005c18.665 18.662 18.665 48.919 0 67.581-18.66 18.662-48.919 18.662-67.578 0l-214.005-214.005-214.005 214.005c-18.662 18.662-48.919 18.662-67.581 0z" />
<glyph unicode="&#xe976;" glyph-name="Cloud" data-tags="Cloud" d="M707.897 464.741l-7.93 42.982c-18.187 98.589-97.798 167.832-187.967 167.832-71.777 0-136.522-43.678-169.558-111.355l-13.629-27.92-30.857-3.624c-68.623-8.061-127.289-71.689-127.289-155.766 0-90.032 67.431-156.444 142.222-156.444h431.406c56.542 0 109.039 50.415 109.039 120.889 0 66.782-47.724 115.757-101.865 119.996l-43.571 3.412zM512 732.444c120.792 0 221.343-92.089 243.911-214.4 86.283-6.756 154.311-82.844 154.311-176.711 0-98.133-74.337-177.778-165.928-177.778h-431.406c-109.843 0-199.111 95.642-199.111 213.333 0 110.222 77.653 200.533 177.541 212.267 41.482 84.978 124.777 143.289 220.682 143.289z" />
<glyph unicode="&#xe97b;" glyph-name="Cloudy" data-tags="Cloudy" d="M568.889 618.667c0 6.117-0.241 12.178-0.715 18.173-9.259 117.179-107.282 209.382-226.84 209.382-125.676 0-227.556-101.88-227.556-227.556 0-40.979 10.832-79.428 29.789-112.639 14.663-25.688 34.191-48.238 57.326-66.405-52.603-38.4-87.115-103.034-87.115-176.511 0-58.539 22.088-111.627 57.809-150.204 36.090-38.969 86.098-63.13 141.302-63.13h431.406c91.591 0 165.928 79.644 165.928 177.778 0 46.888-16.93 89.207-44.538 120.718-27.699 31.625-66.145 52.369-109.016 55.932l-0.757 0.061-0.199 1.075c-11.395 60.434-41.802 113.346-84.207 151.357-29.292 26.25-64.302 45.393-102.721 54.998 0.027 0.902 0.049 1.804 0.065 2.708 0.026 1.418 0.039 2.839 0.039 4.263zM512 618.667c-95.814 0-179.157-58.222-220.682-143.289-10.873-1.277-21.482-3.486-31.757-6.549-8.11 4.435-15.821 9.51-23.064 15.156-35.549 27.711-59.842 69.188-64.866 116.422-0.638 6-0.965 12.092-0.965 18.26 0 94.256 76.41 170.667 170.667 170.667s170.667-76.41 170.667-170.667zM699.967 393.945l7.93-42.981 43.571-3.413c54.141-4.238 101.865-53.214 101.865-119.996 0-70.474-52.497-120.889-109.039-120.889h-431.406c-74.791 0-142.222 66.412-142.222 156.444 0 84.076 58.666 147.706 127.289 155.766l30.857 3.624 13.629 27.92c33.037 67.677 97.782 111.355 169.558 111.355 90.169 0 169.779-69.243 187.967-167.832z" />
<glyph unicode="&#xe97d;" glyph-name="Comments" data-tags="Comments" d="M590.62 334.222l-78.62-157.235-78.619 157.235h-262.715v455.111h682.667v-455.111h-262.713zM170.667 846.222c-31.419 0-56.889-25.47-56.889-56.889v-455.111c0-31.42 25.47-56.889 56.889-56.889h227.556l62.895-125.787c20.965-41.933 80.801-41.933 101.766 0l62.895 125.787h227.556c31.42 0 56.889 25.469 56.889 56.889v455.111c0 31.419-25.469 56.889-56.889 56.889h-682.667z" />
<glyph unicode="&#xe981;" glyph-name="Copy" data-tags="Copy" d="M284.444 163.556h-113.778c-31.419 0-56.889 25.469-56.889 56.889v568.889c0 31.419 25.47 56.889 56.889 56.889h568.889c31.42 0 56.889-25.441 56.889-56.86v-113.806h56.889c31.42 0 56.889-25.368 56.889-56.787v-512.346c0-31.414-25.469-56.644-56.889-56.644h-512c-31.419 0-56.889 25.469-56.889 56.889v56.889zM341.333 106.667h512v512h-512v-512zM739.556 675.556v113.778h-568.889v-568.889h113.778v398.222c0 27.492 19.5 50.429 45.424 55.733 3.703 0.758 7.537 1.156 11.465 1.156h398.222z" />
<glyph unicode="&#xe987;" glyph-name="Cost" data-tags="Cost" d="M443.733 372.15h-45.511c0-45.261 33.451-83.689 79.644-96.586v-55.12h68.267v55.12c46.194 12.897 79.644 51.325 79.644 96.586 0 70.287-60.075 86.975-108.316 100.375-50.062 13.401-73.728 23.514-73.728 51.326 0 27.307 31.175 50.568 68.267 50.568s68.267-23.261 68.267-50.568h45.511c0 45.259-33.451 83.69-79.644 96.585v55.119h-68.267v-55.119c-46.194-12.895-79.644-51.326-79.644-96.585 0-70.289 60.075-86.977 108.316-100.377 50.062-13.401 73.728-23.514 73.728-51.325 0-27.307-31.175-50.569-68.267-50.569s-68.267 23.262-68.267 50.569zM910.222 448c0 219.932-178.29 398.222-398.222 398.222s-398.222-178.29-398.222-398.222c0-219.932 178.29-398.222 398.222-398.222s398.222 178.29 398.222 398.222zM853.333 448c0-188.513-152.821-341.333-341.333-341.333s-341.333 152.821-341.333 341.333c0 188.513 152.82 341.333 341.333 341.333s341.333-152.82 341.333-341.333z" />
<glyph unicode="&#xe988;" glyph-name="Cut" data-tags="Cut" d="M483.556 846.222v-56.889h56.889v56.889h-56.889zM540.444 106.667v-56.889h-56.889v56.889h56.889zM540.444 263.111v56.889h-56.889v-56.889h56.889zM540.444 376.889v56.889h-56.889v-56.889h56.889zM540.444 490.667v56.889h-56.889v-56.889h56.889zM540.444 604.444v56.889h-56.889v-56.889h56.889zM483.556 163.556h-199.111c-31.419 0-56.889 25.469-56.889 56.889v455.111c0 31.419 25.47 56.889 56.889 56.889h199.111v14.222h56.889v-14.222h199.111c31.42 0 56.889-25.274 56.889-56.693v-455.455c0-31.42-25.469-56.741-56.889-56.741h-199.111v-14.222h-56.889v14.222zM739.556 220.444v455.111h-455.111v-455.111h455.111z" />
<glyph unicode="&#xe989;" glyph-name="Delivery" data-tags="Delivery" d="M525.953 844.041c-8.783 2.909-19.122 2.909-27.905 0l-367.023-121.556c-11.498-3.808-17.246-11.146-17.246-18.484v-512c-0.001-7.339 5.747-14.677 17.246-18.489l367.023-121.554c8.783-2.907 19.122-2.907 27.905 0l367.021 121.554c11.503 3.812 17.249 11.15 17.249 18.489v512c0 7.338-5.751 14.676-17.249 18.484l-367.021 121.556zM170.667 206.911v465.476l312.889-103.627v-465.79l-268.815 89.031 0.459 0.148-44.532 14.763zM809.262 192l-268.817-89.031v465.79l113.778 37.683v-186.886l113.778 28.444v196.124l85.333 28.262v-465.476l-44.498-14.774 0.427-0.137zM745.762 682.969l-296.306 98.768 62.544 20.714 297.262-98.451-63.499-21.031zM324.308 740.288l281.354-103.719-93.662-31.020-297.26 98.451 109.568 36.288z" />
<glyph unicode="&#xe98a;" glyph-name="Description" data-tags="Description" d="M768 704h-512v-227.556h512v227.556zM312.889 533.333v113.778h398.222v-113.778h-398.222zM256 362.667c0 13.744 14.698 28.444 28.444 28.444h455.111c13.744 0 28.444-14.7 28.444-28.444s-14.7-28.444-28.444-28.444h-455.111c-13.746 0-28.444 14.7-28.444 28.444zM284.444 248.889c-13.746 0-28.444-14.7-28.444-28.444s14.698-28.444 28.444-28.444h455.111c13.744 0 28.444 14.7 28.444 28.444 0 20.855-14.7 28.444-28.444 28.444h-455.111zM113.778 789.333v-682.667c0-27.489 29.397-56.889 56.889-56.889h682.667c27.489 0 56.889 29.4 56.889 56.889v682.667c0 27.492-29.4 56.889-56.889 56.889h-682.667c-27.492 0-56.889-29.397-56.889-56.889zM170.667 789.333h682.667v-682.667h-682.667v682.667z" />
<glyph unicode="&#xe98b;" glyph-name="Desktop" data-tags="Desktop" d="M369.778 213.248h-199.111c-31.419 0-56.889 25.475-56.889 56.889v512.002c0 31.419 25.47 56.889 56.889 56.889h682.667c31.42 0 56.889-25.47 56.889-56.889v-512.002c0-31.42-25.469-56.889-56.889-56.889h-199.111l64.751-129.502c9.455-18.91-4.295-41.165-25.441-41.165h-363.064c-21.145 0-34.898 22.255-25.442 41.165l64.751 129.502zM853.333 782.139h-682.667v-398.224h682.667v398.224zM170.667 270.137h682.667v56.889h-682.667v-56.889zM433.381 213.248l-56.889-113.778h271.017l-56.889 113.778h-157.239z" />
<glyph unicode="&#xe98c;" glyph-name="Disable" data-tags="Disable" d="M304.558 638.78c-11.108-11.108-11.108-29.118 0-40.226l362.038-362.038c11.11-11.11 29.121-11.11 40.226 0 11.11 11.105 11.11 29.116 0 40.226l-362.037 362.038c-11.108 11.109-29.118 11.109-40.227 0zM910.222 448c0 219.932-178.29 398.222-398.222 398.222s-398.222-178.29-398.222-398.222c0-219.932 178.29-398.222 398.222-398.222s398.222 178.29 398.222 398.222zM853.333 448c0-188.513-152.821-341.333-341.333-341.333s-341.333 152.821-341.333 341.333c0 188.513 152.82 341.333 341.333 341.333s341.333-152.82 341.333-341.333z" />
<glyph unicode="&#xe995;" glyph-name="Document_Template" data-tags="Document_Template" d="M369.778 504.889c-15.709 0-28.444-12.735-28.444-28.444s12.735-28.444 28.444-28.444h284.444c15.707 0 28.444 12.735 28.444 28.444s-12.737 28.444-28.444 28.444h-284.444zM341.333 647.111c0 15.709 12.735 28.444 28.444 28.444h170.667c15.709 0 28.444-12.735 28.444-28.444s-12.735-28.444-28.444-28.444h-170.667c-15.709 0-28.444 12.735-28.444 28.444zM369.778 334.222c-15.709 0-28.444-12.737-28.444-28.444s12.735-28.444 28.444-28.444h284.444c15.707 0 28.444 12.737 28.444 28.444s-12.737 28.444-28.444 28.444h-284.444zM796.444 789.633v-57.189h56.889c31.42 0 56.889-25.47 56.889-56.889v-512c0-31.42-25.469-56.889-56.889-56.889h-56.889v-0.302c0-31.42-25.469-56.587-56.889-56.587h-455.111c-31.419 0-56.889 25.469-56.889 56.889h-56.889c-31.419 0-56.889 25.469-56.889 56.889v512c0 31.419 25.47 56.889 56.889 56.889h56.889v56.889c0 31.419 25.47 56.889 56.889 56.889h455.111c31.42 0 56.889-25.17 56.889-56.589zM739.556 106.667v682.667h-455.111v-682.667h455.111zM796.444 163.556h56.889v512h-56.889v-512zM227.556 163.556v512h-56.889v-512h56.889z" />
<glyph unicode="&#xe999;" glyph-name="Door" data-tags="Door" d="M540.444 391.111c-15.709 0-28.444-12.737-28.444-28.444s12.735-28.444 28.444-28.444h113.778c1.963 0 3.88 0.199 5.734 0.58 12.959 2.651 22.71 14.12 22.71 27.864v56.881c0 15.709-12.737 28.452-28.444 28.452s-28.444-12.735-28.444-28.444v-28.444h-85.333zM796.444 789.633v-682.966h85.333c15.707 0 28.444-12.737 28.444-28.444s-12.737-28.444-28.444-28.444h-739.556c-15.709 0-28.444 12.737-28.444 28.444s12.735 28.444 28.444 28.444h85.333v682.667c0 31.419 25.47 56.889 56.889 56.889h455.111c31.42 0 56.889-25.17 56.889-56.589zM284.444 106.667h455.111v682.667h-455.111v-682.667z" />
<glyph unicode="&#xe99a;" glyph-name="Drawing" data-tags="Drawing" d="M540.44 784.48v33.298c0 15.709-12.735 28.444-28.444 28.444s-28.444-12.735-28.444-28.444v-33.301c-33.142-11.715-56.885-43.323-56.885-80.476 0-11.646 2.332-22.747 6.556-32.861-0.514-1.018-0.971-2.074-1.368-3.163l-100.771-276.865h-46.644c-15.71 0-28.444-12.738-28.444-28.445s12.735-28.444 28.444-28.444h25.938l-73.095-200.823c-5.373-14.763 2.52-30.219 17.629-34.52 15.11-4.295 31.714 4.187 37.087 18.944l78.762 216.4h286.242l78.717-216.274c5.376-14.763 21.936-23.097 36.995-18.625 15.058 4.477 22.909 20.070 17.539 34.833l-72.818 200.067h22.113c15.713 0 28.444 12.737 28.444 28.444s-12.732 28.445-28.444 28.445h-42.82l-101.046 277.625c-0.848 2.328-1.974 4.496-3.328 6.48 3.22 8.992 4.978 18.683 4.978 28.784 0 37.156-23.745 68.765-56.893 80.479zM511.894 732.444h0.207c15.663-0.055 28.343-12.769 28.343-28.444 0-15.71-12.735-28.444-28.444-28.444s-28.444 12.735-28.444 28.444c0 15.674 12.678 28.388 28.339 28.444zM391.468 391.112l85.546 235.034c10.676-4.805 22.519-7.479 34.986-7.479 13.732 0 26.706 3.243 38.199 9.007l86.104-236.562h-244.834z" />
<glyph unicode="&#xe99f;" glyph-name="Edit" data-tags="Edit" d="M596.844 846.218c-7.714-0.133-15.041-3.393-20.304-9.032l-398.224-426.667c-4.916-5.267-7.65-12.203-7.65-19.408v-142.222c0-15.707 12.735-28.444 28.444-28.444h142.222c7.884 0 15.415 3.271 20.795 9.034l398.221 426.669c10.462 11.205 10.16 28.683-0.677 39.521l-142.222 142.222c-5.456 5.455-12.891 8.46-20.605 8.327zM598.039 776.846l101.973-101.972-71.014-76.087-101.974 101.972 71.015 76.087zM227.556 379.898l260.629 279.247 101.969-101.972-261.181-279.84h-101.417v102.565zM142.222 106.667c-15.709 0-28.444-12.737-28.444-28.444s12.735-28.444 28.444-28.444h739.556c15.707 0 28.444 12.737 28.444 28.444s-12.737 28.444-28.444 28.444h-739.556z" />
<glyph unicode="&#xe9a0;" glyph-name="Element" data-tags="Element" d="M498.047 843.604c8.783 3.491 19.122 3.491 27.905 0l367.021-145.868c11.497-4.569 17.249-13.375 17.249-22.181v-455.111c0-8.806-5.751-17.613-17.249-22.181l-367.021-145.869c-8.783-3.487-19.122-3.487-27.905 0l-367.023 145.869c-11.498 4.568-17.246 13.375-17.246 22.181v455.098c0 8.806 5.749 17.625 17.246 22.194l367.023 145.868zM214.74 675.556l297.26-118.141 297.262 118.141-297.262 118.141-297.26-118.141zM170.667 258.378l312.889 124.353v130.535l-312.889 124.353v-379.241zM483.556 327.282l-268.815-106.837 268.815-106.837v213.675zM540.444 113.607l268.817 106.837-268.817 106.837v-213.675zM540.444 382.731l312.889-124.353v379.241l-312.889-124.353v-130.535z" />
<glyph unicode="&#xe9a4;" glyph-name="Equipment" data-tags="Equipment" d="M227.556 732.444c0 62.838 50.94 113.778 113.778 113.778h341.333c62.839 0 113.778-50.94 113.778-113.778v-56.889c62.839 0 113.778-50.94 113.778-113.778v-455.111c0-31.42-25.469-56.889-56.889-56.889h-682.667c-31.419 0-56.889 25.469-56.889 56.889v455.111c0 62.838 50.94 113.778 113.778 113.778v56.889zM682.667 789.333h-341.333c-31.419 0-56.889-25.47-56.889-56.889v-56.889h455.111v56.889c0 31.419-25.469 56.889-56.889 56.889zM853.333 448v113.778c0 31.419-25.469 56.889-56.889 56.889h-568.889c-31.419 0-56.889-25.47-56.889-56.889v-113.778h242.777c19.673 34.008 56.443 56.889 98.557 56.889s78.882-22.881 98.554-56.889h242.779zM625.778 391.111v-113.778c0-31.42-25.469-56.889-56.889-56.889h-113.778c-31.419 0-56.889 25.469-56.889 56.889v113.778h-227.556v-284.444h682.667v284.444h-227.556zM568.889 391.111c0 31.419-25.47 56.889-56.889 56.889s-56.889-25.47-56.889-56.889v-113.778h113.778v113.778z" />
<glyph unicode="&#xe9a8;" glyph-name="exclamation" data-tags="exclamation" d="M568.889 398.305v284.444c0 31.419-25.47 56.889-56.889 56.889s-56.889-25.47-56.889-56.889v-284.444c0-31.417 25.47-56.887 56.889-56.887s56.889 25.469 56.889 56.887zM512 284.53c-31.419 0-56.889-25.469-56.889-56.889s25.47-56.889 56.889-56.889c31.419 0 56.889 25.469 56.889 56.889s-25.47 56.889-56.889 56.889z" />
<glyph unicode="&#xe9a9;" glyph-name="EyeSlash" data-tags="EyeSlash" d="M131.885 735.043c10 9.994 26.209 9.99 36.204-0.011l404.276-404.519c0 0 0 0 0 0l174.814-174.916c9.995-10.001 9.99-26.209-0.011-36.204s-26.209-9.99-36.204 0.011l-69.985 70.030c-40.306-10.268-83.568-15.479-129.114-15.479-186.182 0-333.668 87.074-398.087 250.544 27.42 69.581 69.89 126.246 123.989 168.385l-105.892 105.955c-9.994 10-9.99 26.209 0.011 36.204zM277.316 553.31c-47.522-33.601-87.047-77.309-112.338-128.812 61.44-125.115 206.878-199.111 346.887-199.111 28.14 0 56.519 2.987 84.405 8.784l-78.717 78.757c-1.884-0.091-3.781-0.137-5.688-0.137-61.813 0-111.709 49.892-111.709 111.706 0 1.93 0.048 3.849 0.145 5.755l-122.984 123.057zM454.781 520.6l153.151-153.24c9.938 16.703 15.644 36.241 15.644 57.139 0 61.813-49.897 111.71-111.712 111.71-20.875 0-40.39-5.691-57.083-15.609zM859.244 424.499c-32.631-66.451-89.094-118.476-155.847-152.661l41.153-41.176c74.24 42.132 131.783 107.275 165.894 193.837-64.421 163.468-212.4 255.654-398.579 255.654-66.375 0-127.832-11.716-182.36-34.202l42.753-42.778c44.885 16.613 92.553 25.548 139.606 25.548 140.008 0 285.939-79.107 347.379-204.221z" />
<glyph unicode="&#xe9aa;" glyph-name="Facade" data-tags="Facade" horiz-adv-x="970" d="M862.316 360.265v-215.59c0-29.766-24.129-53.884-53.895-53.884h-646.737c-29.765 0-53.895 24.129-53.895 53.895v215.579h754.526zM161.684 306.37v-161.684h646.737v161.684h-646.737zM862.316 575.842h-754.526v215.579c0 29.766 24.13 53.895 53.895 53.895h646.737c29.766 0 53.895-24.065 53.895-53.83v-215.644zM161.684 629.737h646.737v161.684h-646.737v-161.684zM592.842 360.265v269.472h53.895v-269.434l-53.895-0.038zM323.368 629.737v215.579h53.895v-215.546l-53.895-0.033zM323.368 90.791v269.474h53.895v-269.436l-53.895-0.038zM862.316 306.37h-754.526v323.367h754.526v-323.367zM161.684 360.265h646.737v215.577h-646.737v-215.577z" />
<glyph unicode="&#xe9ab;" glyph-name="Favorites" data-tags="Favorites" d="M511.999 181.732l-189.074-124.012c-23.205-15.223-53.827-7.908-68.395 16.338-7.194 11.969-9.396 26.493-6.095 40.203l54.465 226.185-171.32 149.546c-21.026 18.353-23.83 51.040-6.262 73.007 8.676 10.848 21.216 17.523 34.715 18.48l222.736 15.778 83.193 216.437c10.21 26.563 39.099 39.45 64.525 28.783 12.556-5.268 22.508-15.665 27.55-28.783l83.192-216.437 222.737-15.778c27.335-1.936 47.997-26.659 46.143-55.218-0.916-14.103-7.305-27.205-17.692-36.268l-171.315-149.546 54.465-226.185c6.684-27.762-9.438-55.927-36.011-62.908-13.119-3.453-27.022-1.149-38.48 6.366l-189.076 124.012z" />
<glyph unicode="&#xe9ac;" glyph-name="Favorites_Unselcted" data-tags="Favorites_Unselcted" horiz-adv-x="970" d="M485.052 264.882l-193.982-127.229 55.93 232.27-179.105 156.338 232.734 16.487 84.422 219.635 84.421-219.635 232.734-16.487-179.103-156.338 55.932-232.27-193.984 127.229zM682.35 123.893v0c-0.005 0 0-0.005 0 0zM286.959 350.795l-51.599-214.285c-3.128-12.989-1.042-26.748 5.774-38.087 13.802-22.97 42.812-29.895 64.795-15.479l179.123 117.485 179.125-117.485c10.854-7.119 24.026-9.302 36.454-6.031 25.174 6.613 40.448 33.296 34.115 59.597l-51.599 214.285 162.299 141.67c9.841 8.587 15.894 20.998 16.761 34.359 1.757 27.057-17.818 50.477-43.714 52.312l-211.014 14.948-78.814 205.045c-4.777 12.428-14.204 22.277-26.1 27.268-24.088 10.106-51.456-2.102-61.129-27.268l-78.814-205.045-211.013-14.948c-12.789-0.906-24.669-7.23-32.888-17.507-16.643-20.811-13.987-51.777 5.933-69.164l162.303-141.67z" />
<glyph unicode="&#xe9ad;" glyph-name="File" data-tags="File" horiz-adv-x="970" d="M538.947 804.013h-269.561c-29.766 0-53.807-24.129-53.807-53.895v-646.737c0-29.766 24.13-53.895 53.895-53.895h431.158c29.766 0 53.895 24.091 53.895 53.857v485.091l-215.579 215.579zM678.308 588.434h-139.361v139.36l139.361-139.36zM700.632 534.539v-431.158h-431.158v646.737h215.579v-188.632c0-14.882 12.065-26.947 26.947-26.947h188.632z" />
<glyph unicode="&#xe9ae;" glyph-name="FillColor" data-tags="FillColor" d="M113.778 789.333c0 31.419 25.47 56.889 56.889 56.889h682.667c31.42 0 56.889-25.47 56.889-56.889v-682.667c0-31.42-25.469-56.889-56.889-56.889h-682.667c-31.419 0-56.889 25.469-56.889 56.889v682.667zM813.107 789.333h-642.441v-642.441l642.441 642.441zM210.892 106.667h642.441v642.441l-642.441-642.441z" />
<glyph unicode="&#xe9af;" glyph-name="Filter" data-tags="Filter" d="M560.762 106.667l-81.8 40.897c-9.636 4.818-15.724 14.672-15.724 25.446v226.228l-283.348 259.735c-5.878 5.387-9.224 12.995-9.224 20.968v109.392h682.667v-109.392c0-7.973-3.345-15.58-9.222-20.968l-283.35-259.735v-292.572zM617.648 374.215l264.903 242.822c17.63 16.163 27.671 38.984 27.671 62.904v166.281h-796.444v-166.281c0-23.92 10.039-46.74 27.671-62.904l264.9-242.822v-201.205c0-32.324 18.261-61.872 47.171-76.328l81.8-40.897c17.635-8.818 38.58-7.879 55.351 2.486 16.771 10.371 26.977 28.678 26.977 48.395v267.548z" />
<glyph unicode="&#xe9b0;" glyph-name="Folder" data-tags="Folder" horiz-adv-x="970" d="M431.158 588.434l377.263 0.001v-431.159h-646.737l0.001 538.948h156.242l71.402-87.88c10.234-12.596 25.599-19.909 41.828-19.909zM808.421 103.381c29.766 0 53.895 24.129 53.895 53.895v431.159c0 29.765-24.129 53.895-53.895 53.895l-377.263-0.001-71.402 87.88c-10.234 12.596-25.599 19.909-41.828 19.909h-156.242c-29.766 0-53.895-24.129-53.895-53.895l-0.001-538.948c0-29.766 24.13-53.895 53.895-53.895h646.737z" />
<glyph unicode="&#xe9b1;" glyph-name="Group" data-tags="Group" d="M103.8 509.525l-71.96-40.514c-42.453-23.901-42.453-79.597 0-103.499l64.309-36.206-64.309-41.002c-42.453-23.901-42.453-79.595 0-103.502l414.138-233.159c21.967-12.366 49.842-12.366 71.809 0l414.138 233.165c42.454 23.901 42.454 79.595 0 103.496l-64.307 41.002 64.307 36.206c42.454 23.902 42.454 79.597 0 103.499l-71.957 40.514 72.584 41.215c41.617 23.63 41.617 84.802 0 108.432l-421.198 239.156c-18.328 10.406-40.614 10.406-58.941 0l-421.198-239.155c-41.618-23.631-41.618-84.802 0-108.433l72.587-41.215zM60.684 604.956l421.198 239.156 421.201-239.156-144.42-82.001-25.233-14.154 0.151-0.086-251.699-142.914-421.198 239.155zM167.44 473.39l284.972-161.805c18.328-10.409 40.614-10.409 58.941 0l284.97 161.805 99.695-56.129-414.136-233.164-414.138 233.164 99.695 56.129zM517.787 132.349l286.565 161.34 91.666-57.133-414.136-233.165-414.138 233.165 91.665 57.133 286.568-161.34c21.967-12.366 49.842-12.366 71.809 0z" />
<glyph unicode="&#xe9b2;" glyph-name="Holiday" data-tags="Holiday" d="M615.913 828.101c-93.64 25.090-192.117 25.536-277.866-7.562-86.428-33.36-158.254-100.226-197.905-205.965-2.443-6.516-2.035-13.76 1.125-19.959s8.783-10.786 15.491-12.637l349.359-96.375-90.050-378.937h-277.869c-13.689 0-24.785-14.757-24.785-28.444s11.096-28.444 24.785-28.444h747.237c13.687 0 24.786 14.757 24.786 28.444s-11.099 28.444-24.786 28.444h-418.402l86.899 365.746 321.621-88.72c6.935-1.917 14.364-0.717 20.349 3.277 5.99 3.999 9.938 10.398 10.832 17.54 26.47 211.763-100.506 372.596-290.822 423.591zM345.137 581.435l-148.106 40.857c35.881 77.76 92.572 126.412 158.866 152 44.718 17.261 94.413 24.232 145.739 21.934-21.094-15.512-41.343-35.264-59.884-56.742-41.349-47.9-77.168-107.897-96.616-158.049zM711.185 480.457c7.68 53.048 8.732 123.56-1.070 186.395-4.358 27.902-10.991 55.239-20.673 79.276 110.325-59.728 177.892-169.264 170.667-306.752l-148.924 41.082zM663.017 494.072l-269.744 74.28c17.485 43.088 49.086 95.972 86.005 138.74 21.984 25.466 44.853 46.166 66.509 59.051 21.897 13.029 39.589 16.394 53.191 12.969 12.999-3.271 25.799-14.097 37.268-35.822 11.389-21.583 19.695-50.805 24.889-84.082 8.664-55.501 8.021-117.866 1.883-165.136z" />
<glyph unicode="&#xe9b3;" glyph-name="Home" data-tags="Home" d="M170.667 49.778c-31.419 0-56.889 25.469-56.889 56.889v318.089c0 29.648 11.491 58.225 32.511 79.609 57.903 58.904 259.136 263.225 326.865 326.53 21.982 20.547 56.164 20.421 77.995-0.286 64.287-60.977 267.795-266.8 326.385-326.141 21.134-21.407 32.688-50.060 32.688-79.795v-318.006c0-31.42-25.469-56.889-56.889-56.889v374.895c0 14.948-5.78 29.189-16.282 39.826-59.028 59.782-261.632 264.683-325.052 324.835-66.603-62.251-266.701-265.399-325.14-324.849-10.444-10.624-16.192-24.83-16.192-39.728v-318.089h195.047v146.284c0 80.794 65.494 146.288 146.286 146.288 80.788 0 146.285-65.494 146.285-146.288v-146.284h195.049v-56.889h-195.049c-31.42 0-56.889 25.469-56.889 56.889v146.284c0 49.374-40.024 89.401-89.396 89.401s-89.397-40.027-89.397-89.401v-146.284c0-31.42-25.47-56.889-56.889-56.889h-195.047z" />
<glyph unicode="&#xe9b4;" glyph-name="Humidity" data-tags="Humidity" d="M524.428 100.614c73.81 0 144.597 29.463 196.792 81.897 52.19 52.434 81.51 123.557 81.51 197.712 0 108.406-69.973 212.357-144.868 291.783-36.932 39.164-73.944 71.197-101.757 93.447-12.897 10.317-23.769 18.496-31.678 24.271-1.809-1.32-3.773-2.768-5.882-4.337-12.747-9.49-30.731-23.446-51.47-41.167-41.605-35.549-93.701-85.743-136.926-144.965-8.263-11.321-24.096-13.768-35.364-5.467s-13.704 24.209-5.441 35.53c46.368 63.527 101.612 116.599 144.95 153.629 21.732 18.569 40.62 33.231 54.126 43.286 6.756 5.030 12.175 8.914 15.941 11.564 1.883 1.326 3.354 2.343 4.372 3.042l1.184 0.808 0.468 0.316c8.499 5.692 19.615 5.674 28.113-0.018l1.016-0.689c0.636-0.434 1.552-1.063 2.728-1.882 2.353-1.637 5.75-4.034 10.044-7.149 8.584-6.228 20.761-15.339 35.342-27.001 29.11-23.292 67.999-56.925 106.968-98.253 76.908-81.561 158.737-197.907 158.737-326.746 0-87.637-34.651-171.691-96.336-233.66-61.679-61.969-145.34-96.785-232.57-96.785-87.231 0-170.89 34.816-232.571 96.785-9.88 9.927-9.88 26.021 0 35.948s25.9 9.927 35.78 0c52.192-52.434 122.98-81.897 196.791-81.897zM524.428 820.818l14.070 21.126c0 0-0.036 0.024-14.070-21.126zM510.385 841.962c0 0 0.009 0.006 14.043-21.144l-14.043 21.144zM564.42 460.987c-32.992-55.241-103.85-55.241-136.842 0-14.155 23.7-44.557 23.7-58.712 0-32.992-55.241-103.85-55.241-136.842 0-14.155 23.7-44.557 23.7-58.712-0.001l-16.296-27.286c-7.417-12.418-22.174-15.564-32.961-7.026s-13.52 25.525-6.104 37.943l16.296 27.286c32.992 55.241 103.85 55.241 136.842 0 14.156-23.7 44.557-23.7 58.712 0 32.993 55.241 103.85 55.241 136.843 0 14.155-23.7 44.556-23.7 58.712 0 32.992 55.241 103.847 55.241 136.843 0l16.293-27.286c7.418-12.418 4.688-29.405-6.104-37.943-10.786-8.537-25.543-5.391-32.961 7.026l-16.293 27.286c-14.154 23.701-44.555 23.701-58.712 0.001zM427.578 290.321c32.992-55.245 103.85-55.245 136.842 0 14.157 23.7 44.558 23.7 58.712 0l16.293-27.29c7.418-12.413 22.175-15.559 32.961-7.026 10.792 8.539 13.522 25.526 6.104 37.945l-16.293 27.284c-32.996 55.245-103.851 55.245-136.843 0-14.156-23.7-44.557-23.7-58.712 0-32.993 55.245-103.85 55.245-136.843 0-14.155-23.7-44.556-23.7-58.712 0-32.992 55.245-103.85 55.245-136.842 0l-16.296-27.284c-7.416-12.419-4.684-29.406 6.104-37.945 10.788-8.533 25.545-5.387 32.961 7.026l16.296 27.29c14.155 23.7 44.557 23.7 58.712 0 32.992-55.245 103.85-55.245 136.842 0 14.155 23.7 44.557 23.7 58.712 0z" />
<glyph unicode="&#xe9b5;" glyph-name="I" data-tags="I" horiz-adv-x="970" d="M516.807 299.094v230.226l-8.874 9.611c-15.901-0.4-33.187-1.902-51.861-4.505-18.673-2.403-35.96-6.207-51.861-11.413v-29.434l38.549-6.007c4.807-0.801 8.412-2.803 10.816-6.007 2.589-3.204 3.883-7.509 3.883-12.915v-169.86c0-5.206-1.387-9.41-4.16-12.617-2.589-3.201-6.286-5.206-11.094-6.004l-34.112-5.707v-30.634h157.802v30.634l-34.112 5.707c-4.807 0.798-8.505 2.803-11.094 6.004-2.588 3.207-3.883 7.508-3.883 12.919zM509.874 600.502c7.58 8.209 11.371 18.721 11.371 31.536 0 12.614-3.79 22.926-11.371 30.935s-17.472 12.014-29.674 12.014c-12.203 0-22.094-4.004-29.674-12.014s-11.371-18.321-11.371-30.935c0-12.815 3.79-23.327 11.371-31.536 7.58-8.009 17.472-12.014 29.674-12.014s22.094 4.004 29.674 12.014zM107.789 782.776v-646.735c0-29.766 24.13-53.895 53.895-53.895h646.737c29.766 0 53.895 24.129 53.895 53.895v646.735c0 29.765-24.129 53.895-53.895 53.895h-646.737c-29.765 0-53.895-24.13-53.895-53.895zM161.684 782.776h646.737v-646.735h-646.737v646.735z" />
<glyph unicode="&#xe9b6;" glyph-name="Incident" data-tags="Incident" d="M598.545 823.279l-10.991-31.383-72.63-173.228h82.409l-85.333-170.667v113.779h-85.333l79.999 230.116 3.676 16.152c0.749 2.095 1.259 4.303 1.5 6.591l0.158 0.695-0.092 0.015c0.061 0.763 0.093 1.535 0.093 2.315 0 15.775-12.782 28.567-28.558 28.58l-312.776 0.249c-27.492 0-56.889-29.94-56.889-57.432l0.001-682.122c0-27.494 29.397-56.889 56.888-56.889h682.667c27.489 0 56.889 29.121 56.889 56.616v682.666c0 27.492-29.394 57.16-56.889 57.16l-226.788-0.241c-13.852-0.015-25.395-9.884-28.001-22.973zM170.667 107.207l-0.001 682.126 271.726-0.216-101.059-284.227h113.778v-256.002l255.999 426.667h-113.778l46.217 113.554 209.783 0.223v-682.126h-682.666z" />
<glyph unicode="&#xe9b7;" glyph-name="Injury" data-tags="Injury" d="M512 641.097c-15.709 0-28.444-12.735-28.444-28.444v-113.778h-113.778c-15.709 0-28.444-12.735-28.444-28.444s12.735-28.444 28.444-28.444h113.778v-113.777c0-15.713 12.735-28.444 28.444-28.444s28.444 12.732 28.444 28.444v113.777h113.778c15.707 0 28.444 12.735 28.444 28.444s-12.737 28.444-28.444 28.444h-113.778v113.778c0 15.709-12.735 28.444-28.444 28.444zM272.951 289.399c80.374-86.005 168.35-152.741 200.536-176.162 23.058-16.782 53.97-16.782 77.028 0 32.188 23.421 120.161 90.158 200.533 176.162 40.203 43.019 79.462 91.87 108.868 143.473 29.252 51.332 50.307 108.101 50.307 166.16 0 130.541-101.029 241.176-231.475 241.176-52.81 0-101.222-18.422-139.837-48.92-8.871-7.006-17.224-14.649-24.995-22.853l-1.914-2.045-1.914 2.045c-7.773 8.206-16.129 15.85-25.002 22.857-38.614 30.495-87.023 48.915-139.831 48.915-130.45 0-231.476-110.635-231.476-241.176 0-58.059 21.055-114.828 50.307-166.16 29.407-51.603 68.666-100.454 108.866-143.473zM470.242 727.756l41.758-45.133 43.213 46.689c31.652 33.41 75.331 54.008 123.533 54.008 96.046 0 174.586-82.096 174.586-184.287 0-44.578-16.321-91.448-42.843-137.994-26.476-46.453-62.606-91.705-101.006-132.796-76.8-82.187-161.48-146.472-192.444-169.006-3.104-2.258-6.976-2.258-10.079 0-30.964 22.534-115.643 86.818-192.445 169.006-38.398 41.091-74.532 86.343-101.003 132.796-26.525 46.546-42.845 93.417-42.845 137.994 0 102.191 78.539 184.287 174.587 184.287 48.204 0 91.882-20.597 123.532-54.007l1.457-1.556z" />
<glyph unicode="&#xe9b8;" glyph-name="Instance" data-tags="Instance" d="M369.778 846.222c-15.709 0-28.444-12.735-28.444-28.444s12.735-28.444 28.444-28.444h483.556v-483.556c0-15.707 12.737-28.444 28.444-28.444s28.444 12.737 28.444 28.444v512c0 15.709-12.737 28.444-28.444 28.444h-512zM227.556 704c0 15.709 12.735 28.444 28.444 28.444h512c15.707 0 28.444-12.735 28.444-28.444v-512c0-15.707-12.737-28.444-28.444-28.444s-28.444 12.737-28.444 28.444v483.556h-483.556c-15.709 0-28.444 12.735-28.444 28.444zM170.667 618.667h455.111c31.42 0 56.889-25.47 56.889-56.889v-455.111c0-31.42-25.469-56.889-56.889-56.889h-455.111c-31.419 0-56.889 25.469-56.889 56.889v455.111c0 31.419 25.47 56.889 56.889 56.889zM625.778 561.778h-455.111v-455.111h455.111v455.111z" />
<glyph unicode="&#xe9b9;" glyph-name="Kanban" data-tags="Kanban" d="M113.778 789.333v-682.667c0-31.42 25.47-56.889 56.889-56.889h227.556c31.419 0 56.889 25.168 56.889 56.587v683.268c0 31.419-25.47 56.589-56.889 56.589h-227.556c-31.419 0-56.889-25.47-56.889-56.889zM398.222 789.333v-682.667h-227.556v682.667h227.556zM568.889 448v-341.333c0-31.42 25.469-56.889 56.889-56.889h227.556c31.42 0 56.889 25.327 56.889 56.747v341.585c0 31.419-25.469 56.779-56.889 56.779h-227.556c-31.42 0-56.889-25.47-56.889-56.889zM853.333 448v-341.333h-227.556v341.333h227.556zM625.778 846.222c-31.42 0-56.889-25.47-56.889-56.889v-113.778c0-31.419 25.469-56.889 56.889-56.889h227.556c31.42 0 56.889 25.427 56.889 56.846v113.856c0 31.419-25.469 56.854-56.889 56.854h-227.556zM853.333 789.333v-113.778h-227.556v113.778h227.556z" />
<glyph unicode="&#xe9ba;" glyph-name="Level" data-tags="Level" d="M170.667 846.222h682.667c27.489 0 56.889-29.397 56.889-56.889v-682.667c0-27.489-29.4-56.889-56.889-56.889h-682.667c-27.492 0-56.889 29.4-56.889 56.889v682.667c0 27.492 29.397 56.889 56.889 56.889zM853.333 597.333v192h-682.667v-192h682.667zM170.667 547.556v-199.111h682.667v199.111h-92.444v-199.111h-49.778v199.111h-99.556v-199.111h-49.778v199.111h-99.556v-199.111h-49.778v199.111h-99.556v-199.111h-49.778v199.111h-92.444zM853.333 298.667h-682.667v-192h682.667v192z" />
<glyph unicode="&#xe9bb;" glyph-name="Link" data-tags="Link" d="M464.794 472.022c-0.92-13.222-11.54-24.021-24.794-24.021s-24.076 10.877-23.457 24.118c7.858 167.88 99.657 167.88 191.456 167.88l96.135 0.001c95.866-0.001 191.866 0.001 191.866-192.001 0-179.609-80.576-191.27-167.802-191.961-13.299-0.109-24.096 10.72-24.134 24.019-0.032 13.254 10.637 23.93 23.878 24.333 64.218 1.946 120.058 15.354 120.058 143.609 0 143.999-77.683 144.284-144.147 144.001l-95.571-0.001c-62.545 0.266-135.138 0.032-143.488-119.977zM584 447.999c13.255 0 24.076-10.878 23.459-24.118-7.837-167.881-99.389-167.881-191.459-167.881h-96.133c-95.866 0-191.865 0-191.867 192.001-0.001 175.983 80.652 190.664 167.928 191.888 13.228 0.186 23.968-10.593 24.004-23.822 0.037-13.281-10.729-23.938-24.006-24.259-64.15-1.549-119.926-15.644-119.926-143.808 0.001-143.999 72.001-143.999 144.432-143.999h95.567c62.545-0.269 134.887-0.032 143.208 119.978 0.917 13.223 11.537 24.022 24.792 24.022z" />
<glyph unicode="&#xe9bc;" glyph-name="List" data-tags="List" d="M540.444 590.222c-15.709 0-28.444-12.735-28.444-28.444s12.735-28.444 28.444-28.444h170.667c15.707 0 28.444 12.735 28.444 28.444s-12.737 28.444-28.444 28.444h-170.667zM512 334.222c0 15.707 12.735 28.444 28.444 28.444h170.667c15.707 0 28.444-12.737 28.444-28.444s-12.737-28.444-28.444-28.444h-170.667c-15.709 0-28.444 12.737-28.444 28.444zM341.333 504.889c31.419 0 56.889 25.47 56.889 56.889s-25.47 56.889-56.889 56.889c-31.419 0-56.889-25.47-56.889-56.889s25.47-56.889 56.889-56.889zM398.222 334.222c0-31.42-25.47-56.889-56.889-56.889s-56.889 25.469-56.889 56.889c0 31.42 25.47 56.889 56.889 56.889s56.889-25.469 56.889-56.889zM170.667 846.222h682.667c31.42 0 56.889-25.47 56.889-56.889v-682.667c0-31.42-25.469-56.889-56.889-56.889h-682.667c-31.419 0-56.889 25.469-56.889 56.889v682.667c0 31.419 25.47 56.889 56.889 56.889zM853.333 789.333h-682.667v-682.667h682.667v682.667z" />
<glyph unicode="&#xe9bd;" glyph-name="List_View" data-tags="List_View" d="M170.667 846.222h682.667c31.42 0 56.889-25.47 56.889-56.889v-682.667c0-31.42-25.469-56.889-56.889-56.889h-682.667c-31.419 0-56.889 25.469-56.889 56.889v682.667c0 31.419 25.47 56.889 56.889 56.889zM853.333 789.333h-682.667v-189.622h682.667v189.622zM853.333 542.822h-682.667v-189.622h682.667v189.622zM170.667 106.667h682.667v189.645h-682.667v-189.645z" />
<glyph unicode="&#xe9be;" glyph-name="Location" data-tags="Location" d="M496.206 59.307c0 0 0.016-0.011 15.794 23.654 15.778-23.666 15.817-23.643 15.817-23.643-9.554-6.366-22.056-6.383-31.611-0.011zM512 628.336c-62.838 0-113.778-50.94-113.778-113.778s50.94-113.778 113.778-113.778c62.839 0 113.778 50.941 113.778 113.778s-50.938 113.778-113.778 113.778zM455.111 514.558c0 31.419 25.47 56.889 56.889 56.889s56.889-25.47 56.889-56.889c0-31.419-25.47-56.889-56.889-56.889s-56.889 25.47-56.889 56.889zM496.206 59.307l15.794 23.654 15.817-23.643 0.066 0.046 0.213 0.142 0.743 0.501c0.635 0.432 1.545 1.058 2.711 1.866 2.333 1.616 5.695 3.971 9.938 7.037 8.484 6.127 20.51 15.081 34.9 26.539 28.729 22.881 67.118 55.922 105.597 96.54 75.799 80.014 157.127 194.799 157.127 322.38 0 86.755-34.463 169.957-95.807 231.302-61.349 61.345-144.549 95.809-231.305 95.809s-169.957-34.464-231.302-95.809c-61.346-61.345-95.809-144.547-95.809-231.302 0-127.581 81.33-242.365 157.128-322.38 38.481-40.619 76.865-73.66 105.597-96.54 14.389-11.457 26.415-20.412 34.898-26.539 4.243-3.066 7.605-5.422 9.938-7.037 1.166-0.808 2.076-1.434 2.711-1.866l0.743-0.501 0.213-0.142 0.089-0.057zM320.924 705.444c50.677 50.677 119.409 79.147 191.076 79.147 71.669 0 140.402-28.47 191.078-79.147s79.144-119.409 79.144-191.076c0-104.715-68.005-205.632-141.54-283.251-36.187-38.195-72.467-69.45-99.735-91.164-11.539-9.188-21.423-16.634-28.948-22.147-7.525 5.513-17.409 12.959-28.948 22.147-27.268 21.714-63.55 52.969-99.736 91.164-73.535 77.619-141.538 178.536-141.538 283.251 0 71.667 28.469 140.4 79.146 191.076z" />
<glyph unicode="&#xe9bf;" glyph-name="Message" data-tags="Message" d="M113.778 732.444c0 31.419 25.47 56.889 56.889 56.889h682.667c31.42 0 56.889-25.47 56.889-56.889v-568.889c0-31.42-25.469-56.889-56.889-56.889h-682.667c-31.419 0-56.889 25.469-56.889 56.889v568.889zM806.258 732.444h-588.517l294.259-223.146 294.258 223.146zM170.667 696.746v-533.191h682.667v533.191l-324.146-245.811c-10.163-7.707-24.212-7.707-34.375 0l-324.146 245.811z" />
<glyph unicode="&#xe9c0;" glyph-name="Milestone" data-tags="Milestone" d="M381.558 407.773l90.213-90.214c22.217-22.215 58.237-22.215 80.453 0l90.216 90.214c22.215 22.217 22.215 58.237 0 80.453l-90.216 90.213c-22.217 22.217-58.237 22.217-80.453 0l-90.213-90.213c-22.217-22.217-22.217-58.237 0-80.453zM421.784 448l90.214 90.214 90.216-90.214-90.216-90.214-90.214 90.214zM125.558 407.773l346.213-346.214c22.217-22.215 58.237-22.215 80.453 0l346.216 346.214c22.215 22.217 22.215 58.237 0 80.453l-346.216 346.213c-22.217 22.217-58.237 22.217-80.453 0l-346.213-346.213c-22.217-22.217-22.217-58.237 0-80.453zM165.784 448l346.214 346.214 346.216-346.214-346.216-346.214-346.214 346.214z" />
<glyph unicode="&#xe9c1;" glyph-name="Minus" data-tags="Minus" d="M860.444 497.778c27.489 0 49.778-22.286 49.778-49.778s-22.289-49.778-49.778-49.778h-696.889c-27.492 0-49.778 22.286-49.778 49.778s22.286 49.778 49.778 49.778h696.889z" />
<glyph unicode="&#xe9c2;" glyph-name="Money" data-tags="Money" d="M350.435 584.783c-2.262 3.052-4.239 6.359-5.881 9.89l-51.65 111.048c-22.332 48.015 27.291 97.819 75.387 75.661l12.439-5.731c19.629-9.043 42.687-6.183 59.511 7.382l37.112 29.922c23.245 18.741 57.023 16.322 77.36-5.54l15.978-17.178c16.373-17.601 42.041-23.010 64.125-13.515l16.612 7.141c48.953 21.052 97.388-30.731 73.114-78.174l-57.776-112.936c-0.165-0.321-0.336-0.64-0.506-0.957 54.932-52.31 169.006-172.113 186.135-279.452 11.355-153.162-79.423-262.565-317.706-262.565-283.66 0-374.438 87.524-363.092 262.565 16.401 102.787 121.704 217.005 178.838 272.44zM408.896 561.776c-3.754-3.455-8.099-7.513-12.918-12.116-17.524-16.733-41.045-40.392-65.122-68.121-49.719-57.259-93.125-122.177-102.661-175.681-4.391-75.401 13.456-117.925 49.067-145.391 41.135-31.733 118.433-53.8 257.428-53.8 111.728 0 177.685 25.799 214.162 59.022 34.378 31.3 51.126 77.090 46.985 139.952-9.455 53.544-52.912 118.561-102.702 175.898-24.075 27.729-47.593 51.388-65.121 68.121-4.818 4.602-9.165 8.661-12.919 12.116h-206.198zM616.118 618.667l57.782 112.934-16.606-7.141c-44.169-18.992-95.508-8.172-128.254 27.030l-15.979 17.178-37.112-29.922c-33.65-27.13-79.766-32.85-119.023-14.763l-12.439 5.731 51.649-111.045h219.983z" />
<glyph unicode="&#xe9c3;" glyph-name="More-horizontal" data-tags="More-horizontal" d="M910.222 476.444c0-47.128-44.095-85.333-85.333-85.333s-85.333 38.205-85.333 85.333c0 47.128 44.095 85.333 85.333 85.333s85.333-38.205 85.333-85.333zM597.333 476.444c0-47.128-44.096-85.333-85.333-85.333s-85.333 38.205-85.333 85.333c0 47.128 44.096 85.333 85.333 85.333s85.333-38.205 85.333-85.333zM284.444 476.444c0-47.128-44.096-85.333-85.333-85.333s-85.333 38.205-85.333 85.333c0 47.128 44.096 85.333 85.333 85.333s85.333-38.205 85.333-85.333z" />
<glyph unicode="&#xe9c4;" glyph-name="More-Veritcal_Icon" data-tags="More-Veritcal_Icon" d="M625.778 135.111c0-47.128-38.205-85.333-85.333-85.333s-85.333 38.205-85.333 85.333c0 47.128 38.205 85.333 85.333 85.333s85.333-38.205 85.333-85.333zM625.778 448c0-47.128-38.205-85.333-85.333-85.333s-85.333 38.205-85.333 85.333c0 47.128 38.205 85.333 85.333 85.333s85.333-38.205 85.333-85.333zM625.778 760.889c0-47.128-38.205-85.333-85.333-85.333s-85.333 38.205-85.333 85.333c0 47.128 38.205 85.333 85.333 85.333s85.333-38.205 85.333-85.333z" />
<glyph unicode="&#xe9c5;" glyph-name="Move" data-tags="Move" d="M369.778 675.556c47.128 0 85.333 38.205 85.333 85.333s-38.205 85.333-85.333 85.333c-47.128 0-85.333-38.205-85.333-85.333s38.205-85.333 85.333-85.333zM654.222 675.556c47.127 0 85.333 38.205 85.333 85.333s-38.207 85.333-85.333 85.333c-47.127 0-85.333-38.205-85.333-85.333s38.207-85.333 85.333-85.333zM455.111 192c0-47.127-38.205-85.333-85.333-85.333s-85.333 38.207-85.333 85.333c0 47.127 38.205 85.333 85.333 85.333s85.333-38.207 85.333-85.333zM654.222 106.667c47.127 0 85.333 38.207 85.333 85.333s-38.207 85.333-85.333 85.333c-47.127 0-85.333-38.207-85.333-85.333s38.207-85.333 85.333-85.333zM455.111 476.444c0-47.128-38.205-85.333-85.333-85.333s-85.333 38.205-85.333 85.333c0 47.128 38.205 85.333 85.333 85.333s85.333-38.205 85.333-85.333zM654.222 391.111c47.127 0 85.333 38.205 85.333 85.333s-38.207 85.333-85.333 85.333c-47.127 0-85.333-38.205-85.333-85.333s38.207-85.333 85.333-85.333z" />
<glyph unicode="&#xe9c6;" glyph-name="Move_Horizen" data-tags="Move_Horizen" d="M227.556 476.444c47.128 0 85.333 38.205 85.333 85.333s-38.205 85.333-85.333 85.333c-47.128 0-85.333-38.205-85.333-85.333s38.205-85.333 85.333-85.333zM597.333 561.778c0-47.128-38.205-85.333-85.333-85.333s-85.333 38.205-85.333 85.333c0 47.128 38.205 85.333 85.333 85.333s85.333-38.205 85.333-85.333zM881.778 561.778c0-47.128-38.207-85.333-85.333-85.333s-85.333 38.205-85.333 85.333c0 47.128 38.207 85.333 85.333 85.333s85.333-38.205 85.333-85.333zM227.556 192c47.128 0 85.333 38.207 85.333 85.333s-38.205 85.333-85.333 85.333c-47.128 0-85.333-38.207-85.333-85.333s38.205-85.333 85.333-85.333zM597.333 277.333c0-47.127-38.205-85.333-85.333-85.333s-85.333 38.207-85.333 85.333c0 47.127 38.205 85.333 85.333 85.333s85.333-38.207 85.333-85.333zM881.778 277.333c0-47.127-38.207-85.333-85.333-85.333s-85.333 38.207-85.333 85.333c0 47.127 38.207 85.333 85.333 85.333s85.333-38.207 85.333-85.333z" />
<glyph unicode="&#xe9c7;" glyph-name="New" data-tags="New" d="M511.999 846.222c-27.491 0-49.778-22.286-49.778-49.778v-298.667h-298.667c-27.491 0-49.778-22.286-49.778-49.778s22.287-49.778 49.778-49.778h298.667v-298.667c0-27.489 22.286-49.778 49.778-49.778s49.778 22.289 49.778 49.778v298.667h298.668c27.489 0 49.778 22.286 49.778 49.778s-22.289 49.778-49.778 49.778h-298.668v298.667c0 27.492-22.286 49.778-49.778 49.778z" />
<glyph unicode="&#xe9c8;" glyph-name="Note" data-tags="Note" d="M910.222 322.23c0-15.087-5.996-29.559-16.663-40.226l-215.563-215.563c-10.667-10.667-25.139-16.663-40.226-16.663h-467.103c-31.419 0-56.889 25.469-56.889 56.889v682.667c0 31.419 25.47 56.889 56.889 56.889h682.667c31.42 0 56.889-25.47 56.889-56.889v-467.103zM836.881 305.778h-182.659v-182.659l182.659 182.659zM853.333 362.667v426.667h-682.667v-682.667h426.667v227.556c0 15.707 12.737 28.444 28.444 28.444h227.556z" />
<glyph unicode="&#xe9c9;" glyph-name="Notebook" data-tags="Notebook" d="M227.556 277.333h-28.444c-15.709 0-28.444-12.737-28.444-28.444s12.735-28.444 28.444-28.444h28.444v-113.778c0-31.42 25.47-56.889 56.889-56.889h512c31.42 0 56.889 25.469 56.889 56.889v682.667c0 31.419-25.469 56.889-56.889 56.889h-512c-31.419 0-56.889-25.47-56.889-56.889v-113.778h-28.444c-15.709 0-28.444-12.735-28.444-28.444s12.735-28.444 28.444-28.444h28.444v-142.222h-28.444c-15.709 0-28.444-12.735-28.444-28.444s12.735-28.444 28.444-28.444h28.444v-142.222zM284.444 789.333h512v-682.667h-512v113.778h28.444c15.709 0 28.444 12.737 28.444 28.444s-12.735 28.444-28.444 28.444h-28.444v142.222h28.444c15.709 0 28.444 12.735 28.444 28.444s-12.735 28.444-28.444 28.444h-28.444v142.222h28.444c15.709 0 28.444 12.735 28.444 28.444s-12.735 28.444-28.444 28.444h-28.444v113.778z" />
<glyph unicode="&#xe9ca;" glyph-name="Opacity" data-tags="Opacity" d="M910.222 547.556c0 164.949-133.717 298.667-298.667 298.667-134.774 0-248.699-89.271-285.87-211.908-122.637-37.17-211.907-151.095-211.907-285.87 0-164.949 133.717-298.667 298.667-298.667 134.775 0 248.7 89.27 285.871 211.905 122.635 37.171 211.905 151.097 211.905 285.872zM611.556 305.778c-12.828 0-25.429 1.001-37.717 2.924l77.46 77.46c1.923-12.288 2.924-24.889 2.924-37.717 0-13.437-1.098-26.618-3.203-39.464-12.84-2.105-26.027-3.203-39.464-3.203zM511.891 327.208c-17.944 8.129-34.72 18.386-50.004 30.453l140.452 140.453c12.066-15.284 22.323-32.059 30.453-50.004l-120.901-120.901zM562.115 538.34l-140.454-140.454c-12.063 15.284-22.32 32.059-30.45 50.004l120.9 120.9c17.944-8.129 34.72-18.386 50.004-30.449zM412.446 590.222c12.831 0 25.429-1 37.72-2.925l-77.462-77.462c-1.925 12.291-2.925 24.889-2.925 37.721 0 13.438 1.096 26.621 3.204 39.462 12.842 2.108 26.024 3.205 39.463 3.205zM711.111 348.444c0 164.949-133.717 298.667-298.666 298.667-7.274 0-14.488-0.26-21.631-0.771 37.775 84.283 122.402 142.994 220.741 142.994 133.53 0 241.778-108.248 241.778-241.778 0-98.34-58.709-182.966-142.99-220.74 0.506 7.14 0.768 14.353 0.768 21.629zM611.556 248.889c7.276 0 14.49 0.262 21.635 0.774-37.78-84.287-122.405-142.996-220.745-142.996-133.53 0-241.778 108.248-241.778 241.778 0 98.34 58.711 182.967 142.993 220.742-0.511-7.144-0.771-14.357-0.771-21.631 0-164.949 133.717-298.667 298.666-298.667z" />
<glyph unicode="&#xe9cb;" glyph-name="Other_Card" data-tags="Other_Card" d="M284.444 647.111c0 15.709 12.735 28.444 28.444 28.444h227.556c15.709 0 28.444-12.735 28.444-28.444s-12.735-28.444-28.444-28.444h-227.556c-15.709 0-28.444 12.735-28.444 28.444zM312.889 504.889c-15.709 0-28.444-12.735-28.444-28.444s12.735-28.444 28.444-28.444h398.222c15.707 0 28.444 12.735 28.444 28.444s-12.737 28.444-28.444 28.444h-398.222zM113.778 789.333v-682.667c0-31.42 25.47-56.889 56.889-56.889h682.667c31.42 0 56.889 25.469 56.889 56.889v682.667c0 31.419-25.469 56.889-56.889 56.889h-682.667c-31.419 0-56.889-25.47-56.889-56.889zM170.667 789.333h682.667v-512h-682.667v512zM853.333 220.444v-113.778h-682.667v113.778h682.667z" />
<glyph unicode="&#xe9cc;" glyph-name="Outline" data-tags="Outline" d="M256 647.111c0 15.709 12.735 28.444 28.444 28.444h147.911c15.709 0 28.444-12.735 28.444-28.444s-12.735-28.444-28.444-28.444h-147.911c-15.709 0-28.444 12.735-28.444 28.444zM284.444 476.444c-15.709 0-28.444-12.735-28.444-28.444s12.735-28.444 28.444-28.444h147.911c15.709 0 28.444 12.735 28.444 28.444s-12.735 28.444-28.444 28.444h-147.911zM256 248.889c0 15.707 12.735 28.444 28.444 28.444h147.911c15.709 0 28.444-12.737 28.444-28.444s-12.735-28.444-28.444-28.444h-147.911c-15.709 0-28.444 12.737-28.444 28.444zM591.644 675.556c-15.707 0-28.445-12.735-28.445-28.444s12.738-28.444 28.445-28.444h147.911c15.707 0 28.444 12.735 28.444 28.444s-12.737 28.444-28.444 28.444h-147.911zM563.199 448c0 15.709 12.738 28.444 28.445 28.444h147.911c15.707 0 28.444-12.735 28.444-28.444s-12.737-28.444-28.444-28.444h-147.911c-15.707 0-28.445 12.735-28.445 28.444zM591.644 277.333c-15.707 0-28.445-12.737-28.445-28.444s12.738-28.444 28.445-28.444h147.911c15.707 0 28.444 12.737 28.444 28.444s-12.737 28.444-28.444 28.444h-147.911zM170.667 846.222h682.667c31.42 0 56.889-25.47 56.889-56.889v-682.667c0-31.42-25.469-56.889-56.889-56.889h-682.667c-31.419 0-56.889 25.469-56.889 56.889v682.667c0 31.419 25.47 56.889 56.889 56.889zM853.333 789.333h-682.667v-682.667h682.667v682.667z" />
<glyph unicode="&#xe9cd;" glyph-name="Password" data-tags="Password" d="M227.556 561.778c-15.709 0-28.444-12.735-28.444-28.444v-16.66l-11.783 11.783c-11.108 11.108-29.118 11.108-40.226 0s-11.108-29.119 0-40.227l11.785-11.785h-16.665c-15.709 0-28.444-12.735-28.444-28.444s12.735-28.444 28.444-28.444h16.66l-11.779-11.779c-11.109-11.108-11.109-29.119 0-40.229 11.108-11.105 29.118-11.105 40.226 0l11.782 11.782v-16.663c0-15.707 12.735-28.444 28.444-28.444s28.444 12.737 28.444 28.444v16.663l11.782-11.782c11.108-11.105 29.118-11.105 40.227 0 11.108 11.11 11.108 29.121 0 40.229l-11.779 11.779h16.66c15.709 0 28.444 12.735 28.444 28.444s-12.735 28.444-28.444 28.444h-16.665l11.785 11.785c11.108 11.108 11.108 29.119 0 40.227s-29.118 11.108-40.226 0l-11.783-11.783v16.66c0 15.709-12.735 28.444-28.444 28.444zM552.227 528.456c11.108 11.108 29.12 11.108 40.225 0 11.11-11.108 11.11-29.119 0-40.227l-11.782-11.785h16.663c15.707 0 28.444-12.735 28.444-28.444s-12.737-28.444-28.444-28.444h-16.663l11.782-11.779c11.105-11.108 11.105-29.119 0-40.229-11.11-11.105-29.12-11.105-40.228 0l-11.78 11.782v-16.663c0-15.707-12.735-28.444-28.444-28.444s-28.444 12.737-28.444 28.444v16.663l-11.782-11.782c-11.108-11.105-29.118-11.105-40.227 0-11.108 11.11-11.108 29.121 0 40.229l11.779 11.779h-16.66c-15.709 0-28.444 12.735-28.444 28.444s12.735 28.444 28.444 28.444h16.663l-11.785 11.785c-11.109 11.108-11.109 29.119 0 40.227s29.118 11.108 40.226 0l11.785-11.785v16.662c0 15.709 12.735 28.444 28.444 28.444s28.444-12.735 28.444-28.444v-16.66l11.783 11.783zM836.671 528.456c11.11 11.108 29.121 11.108 40.226 0 11.11-11.108 11.11-29.119 0-40.227l-11.782-11.785h16.663c15.707 0 28.444-12.735 28.444-28.444s-12.737-28.444-28.444-28.444h-16.657l11.776-11.779c11.11-11.108 11.11-29.119 0-40.229-11.11-11.105-29.116-11.105-40.226 0l-11.782 11.782v-16.663c0-15.707-12.737-28.444-28.444-28.444s-28.444 12.737-28.444 28.444v16.663l-11.782-11.782c-11.11-11.105-29.116-11.105-40.226 0-11.11 11.11-11.11 29.121 0 40.229l11.776 11.779h-16.657c-15.707 0-28.444 12.735-28.444 28.444s12.737 28.444 28.444 28.444h16.663l-11.782 11.785c-11.11 11.108-11.11 29.119 0 40.227 11.105 11.108 29.116 11.108 40.226 0l11.782-11.783v16.66c0 15.709 12.737 28.444 28.444 28.444s28.444-12.735 28.444-28.444v-16.66l11.782 11.783z" />
<glyph unicode="&#xe9ce;" glyph-name="Paste" data-tags="Paste" d="M284.444 732.444c0 31.419 25.47 56.889 56.889 56.889h72.11c19.673 34.008 56.443 56.889 98.557 56.889s78.882-22.881 98.554-56.889h72.112c31.42 0 56.889-25.47 56.889-56.889h56.889c31.42 0 56.889-25.388 56.889-56.807v-569.102c0-31.42-25.469-56.758-56.889-56.758h-568.889c-31.419 0-56.889 25.469-56.889 56.889v568.889c0 31.419 25.47 56.889 56.889 56.889h56.889zM561.313 760.847c-9.922 17.153-28.328 28.486-49.313 28.486s-39.391-11.333-49.313-28.486l-16.43-28.403h-104.688c-0.156-1.976-0.236-3.983-0.236-6.014v-107.764h341.333v107.764c0 2.031-0.080 4.037-0.233 6.014h-104.693l-16.428 28.403zM284.444 675.556h-56.889v-568.889h568.889v568.889h-56.889v-56.889c0-31.419-25.469-56.889-56.889-56.889h-341.333c-31.419 0-56.889 25.47-56.889 56.889v56.889z" />
<glyph unicode="&#xe9cf;" glyph-name="Phone" data-tags="Phone" d="M342.854 519.522l-0.74 4.42c-3.487 20.829 3.065 40.011 6.258 48.658 4.163 11.271 9.664 22.235 14.458 31.009 1.348 2.468 2.698 4.866 4.022 7.166l-61.271 167.567c-33.541-10.233-69.671-24.814-90.57-41.746-16.435-13.315-28.253-29.449-35.867-43.677-3.781-7.066-6.232-13.121-7.619-17.377-0.379-1.164-0.637-2.059-0.807-2.7 1.122-29.541 20.235-78.987 62.017-143.11 41.333-63.433 99.199-132.766 163.552-197.171 64.353-64.398 133.657-122.334 197.12-163.721 64.091-41.802 113.618-60.974 143.36-62.117 0.666 0.182 1.593 0.461 2.81 0.87 4.415 1.49 10.627 4.096 17.84 8.033 14.586 7.959 30.583 19.894 43.241 35.459 16.691 20.537 29.844 46 39.293 68.574l-162.537 78.524c-0.176 0.040-0.654 0.114-1.542 0.046-1.724-0.131-4.358-0.774-7.356-2.395-9.091-4.921-20.759-10.542-33.314-14.387-10.997-3.374-30.965-8.073-52.514-1.94l-1.183 0.336-1.172 0.387c-9.518 3.163-17.103 8.374-19.739 10.189l-0.065 0.046c-4.057 2.788-8.211 5.99-12.124 9.153-7.909 6.383-17.273 14.575-27.216 23.603-20.016 18.176-44.415 41.614-68.128 65.217-23.713 23.601-47.262 47.889-65.523 67.814-9.070 9.896-17.3 19.22-23.719 27.097-3.175 3.896-6.398 8.037-9.206 12.084l-0.051 0.073c-1.821 2.624-7.089 10.217-10.287 19.768l-1.422 4.249zM429.806 604.262c0 0-34.947-50.838-31.584-70.928 6.726-20.090 179.86-192.416 200.033-199.112 11.287-3.209 28.399 3.635 43.167 11.634 18.79 10.177 41.415 12.891 60.655 3.595l166.315-80.356c24.343-11.759 36.989-39.054 26.988-64.176-10.615-26.652-27.187-60.945-50.58-89.719-36.42-44.8-88.849-65.422-105.244-65.422-188.322 0-625.778 438.273-625.778 625.778 0 15.366 18.745 67.425 65.422 105.242 31.292 25.353 79.42 43.027 115.119 53.558 26.813 7.909 54.078-7.45 63.678-33.705l71.81-196.389zM882.381 564.068c1.138-10.362 1.724-20.879 1.724-31.518 0-26.786-40.357-26.786-40.357 0 0 9.87-0.575 19.601-1.69 29.162-13.249 113.689-103.003 203.406-214.642 216.866-9.569 1.154-19.302 1.747-29.161 1.747-26.903 0-26.903 40.179 0 40.179 10.667 0 21.191-0.594 31.545-1.751 132.796-14.83 238.023-122.113 252.581-254.685zM728.889 527.078c2.054-10.48 3.129-21.292 3.129-32.335 0-26.787-40.357-26.787-40.357 0 0 9.631-1.035 19.033-2.998 28.1-10.974 50.656-50.95 90.899-101.586 102.468-9.637 2.2-19.652 3.364-29.93 3.364-26.903 0-26.903 36.831 0 36.831 11.48 0 22.677-1.067 33.509-3.103 70.32-13.222 124.911-67.306 138.234-135.326z" />
<glyph unicode="&#xe9d0;" glyph-name="Plate" data-tags="Plate" d="M170.667 846.222h682.667c1.695 0 3.402-0.112 5.109-0.329l0.324 0.329 0.444-0.433c25.64-3.733 51.012-30.916 51.012-56.455v-682.667c0-27.489-29.4-56.889-56.889-56.889h-682.667c-21.719 0-44.627 18.347-53.29 39.606l-3.599 3.538 1.755 1.775c-1.138 3.965-1.755 7.987-1.755 11.969v682.667c0 27.492 29.397 56.889 56.889 56.889zM802.509 789.333h-631.842v-638.885l631.842 638.885zM200.045 106.667h305.937l-155.154 152.468-150.783-152.468zM579.698 106.667h239.019l-313.753 308.32-117.804-119.119 192.539-189.201zM853.333 145.089v234.877l-194.236 190.873-117.804-119.118 312.040-306.632zM853.333 452.405v314.837l-157.906-159.667 157.906-155.17z" />
<glyph unicode="&#xe9d1;" glyph-name="Predecessor" data-tags="Predecessor" d="M455.111 789.333v-85.333h85.305c-0.010 0 0.009 0 0 0 15.709 0 28.472-12.735 28.472-28.444v-455.111h56.889v56.889c0 31.42 25.469 56.889 56.889 56.889h170.667c31.42 0 56.889-25.469 56.889-56.889v-170.667c0-31.42-25.469-56.889-56.889-56.889h-170.667c-31.42 0-56.889 25.469-56.889 56.889v56.889h-85.333c-15.709 0-28.444 12.737-28.444 28.444v455.111h-56.889v-85.333c0-31.419-25.47-56.889-56.889-56.889h-227.556c-31.419 0-56.889 25.47-56.889 56.889v227.556c0 31.419 25.47 56.889 56.889 56.889h227.556c31.419 0 56.889-25.47 56.889-56.889zM398.222 789.333h-227.556v-227.556h227.556v227.556zM853.333 277.333h-170.667v-170.667h170.667v170.667z" />
<glyph unicode="&#xe9d2;" glyph-name="Preferences" data-tags="Preferences" d="M312.888 846.222c-15.709 0-28.444-12.735-28.444-28.444v-38.156c-20.324-7.183-38.881-18.108-54.844-31.945l-38.059 19.809c-13.935 7.253-31.111 1.836-38.364-12.099l-26.264-50.463c-7.253-13.935-1.836-31.111 12.099-38.364l34.291-17.848c-1.732-9.754-2.636-19.794-2.636-30.045 0-10.528 0.953-20.834 2.778-30.836l-35.678-22.733c-13.249-8.441-17.145-26.025-8.704-39.273l30.57-47.978c8.442-13.248 26.025-17.145 39.274-8.703l31.332 19.963c15.819-13.577 34.153-24.307 54.207-31.395v-38.156c0-15.709 12.735-28.444 28.444-28.444h56.889c15.71 0 28.444 12.735 28.444 28.444v38.156c20.744 7.332 39.647 18.56 55.83 32.806l37.078-19.298c13.935-7.253 31.111-1.836 38.364 12.099l26.264 50.463c7.253 13.935 1.836 31.111-12.099 38.364l-34.077 17.736c1.589 9.358 2.417 18.975 2.417 28.786 0 7.766-0.518 15.411-1.523 22.902l37.348 23.797c13.249 8.442 17.146 26.025 8.704 39.274l-30.57 47.977c-8.442 13.249-26.025 17.146-39.274 8.704l-28.566-18.201c-17.050 16.006-37.39 28.548-59.897 36.503v38.156c0 15.709-12.735 28.444-28.444 28.444h-56.889zM455.111 618.667c0-62.838-50.94-113.778-113.778-113.778s-113.778 50.94-113.778 113.778c0 62.838 50.94 113.778 113.778 113.778s113.778-50.94 113.778-113.778zM651.298 504.889c-15.707 0-28.444-12.735-28.444-28.444v-38.156c-20.326-7.183-38.884-18.108-54.845-31.945l-38.059 19.809c-13.936 7.253-31.111 1.836-38.364-12.099l-26.264-50.465c-7.253-13.932-1.836-31.107 12.099-38.36l34.292-17.852c-1.732-9.751-2.636-19.792-2.636-30.043 0-10.53 0.953-20.833 2.778-30.834l-35.678-22.733c-13.249-8.442-17.146-26.027-8.704-39.276l30.57-47.98c8.442-13.244 26.025-17.141 39.274-8.704l31.332 19.968c15.818-13.579 34.153-24.309 54.207-31.397v-38.155c0-15.707 12.737-28.444 28.444-28.444h56.889c15.707 0 28.444 12.737 28.444 28.444v38.155c20.742 7.333 39.646 18.563 55.831 32.808l37.074-19.302c13.938-7.253 31.113-1.832 38.366 12.1l26.266 50.466c7.253 13.932 1.838 31.107-12.1 38.36l-34.076 17.738c1.593 9.358 2.418 18.972 2.418 28.786 0 7.765-0.518 15.411-1.525 22.903l37.348 23.797c13.249 8.442 17.146 26.021 8.704 39.27l-30.566 47.979c-8.442 13.249-26.027 17.146-39.276 8.704l-28.564-18.201c-17.050 16.006-37.393 28.548-59.898 36.503v38.156c0 15.709-12.737 28.444-28.444 28.444h-56.889zM793.52 277.333c0-62.839-50.938-113.778-113.778-113.778s-113.778 50.938-113.778 113.778c0 62.839 50.938 113.778 113.778 113.778s113.778-50.938 113.778-113.778z" />
<glyph unicode="&#xe9d3;" glyph-name="Premissions" data-tags="Premissions" d="M369.778 391.111c-15.709 0-28.444-12.737-28.444-28.444 0-15.713 12.735-28.444 28.444-28.444h284.444c15.707 0 28.444 12.732 28.444 28.444 0 15.707-12.737 28.444-28.444 28.444h-284.444zM284.444 561.777v56.889c0 125.676 101.88 227.556 227.556 227.556 125.673 0 227.556-101.88 227.556-227.556v-56.889h56.889c31.42 0 56.889-25.47 56.889-56.889v-398.221c0-31.42-25.469-56.889-56.889-56.889h-568.889c-31.419 0-56.889 25.469-56.889 56.889v398.221c0 31.419 25.47 56.889 56.889 56.889h56.889zM682.667 618.666c0 94.257-76.407 170.667-170.667 170.667-94.256 0-170.667-76.41-170.667-170.667v-56.889h341.333v56.889zM227.556 504.888v-398.221h568.889v398.221h-568.889z" />
<glyph unicode="&#xe9d4;" glyph-name="Print" data-tags="Print" d="M796.444 504.889c0-31.419-25.469-56.889-56.889-56.889s-56.889 25.47-56.889 56.889c0 31.419 25.469 56.889 56.889 56.889s56.889-25.47 56.889-56.889zM796.444 789.333c0 31.419-25.469 56.889-56.889 56.889h-455.111c-31.419 0-56.889-25.47-56.889-56.889v-113.778h-56.889c-31.419 0-56.889-25.47-56.889-56.889v-341.333c0-31.42 25.47-56.889 56.889-56.889h56.889v-113.778c0-31.42 25.47-56.889 56.889-56.889h455.111c31.42 0 56.889 25.469 56.889 56.889v113.778h56.889c31.42 0 56.889 25.469 56.889 56.889v341.333c0 31.419-25.469 56.889-56.889 56.889h-56.889v113.778zM284.444 789.333h455.111v-113.778h-455.111v113.778zM853.333 277.333h-56.889v56.889c0 31.42-25.469 56.889-56.889 56.889h-455.111c-31.419 0-56.889-25.469-56.889-56.889v-56.889h-56.889v341.333h682.667v-341.333zM284.444 334.222h455.111v-227.556h-455.111v227.556z" />
<glyph unicode="&#xe9d5;" glyph-name="Properties" data-tags="Properties" horiz-adv-x="970" d="M535.551 749.105c-11.966 46.491-54.168 80.842-104.394 80.842-50.299 0-92.552-34.453-104.446-81.047-1.095 0.136-2.211 0.205-3.343 0.205h-188.632c-14.882 0-26.947-12.064-26.947-26.947s12.065-26.947 26.947-26.947h188.632c1.132 0 2.248 0.070 3.343 0.205 11.895-46.594 54.147-81.047 104.446-81.047 50.226 0 92.428 34.352 104.394 80.842h299.817c14.88 0 26.947 12.065 26.947 26.947s-12.067 26.947-26.947 26.947h-299.817zM485.053 722.158c0-29.765-24.13-53.895-53.895-53.895s-53.895 24.13-53.895 53.895c0 29.766 24.13 53.895 53.895 53.895s53.895-24.129 53.895-53.895zM107.789 452.684c0 14.883 12.065 26.947 26.947 26.947h407.606c11.965 46.491 54.17 80.842 104.394 80.842 51.189 0 94.046-35.685 105.052-83.537h83.58c14.88 0 26.947-12.065 26.947-26.947s-12.067-26.947-26.947-26.947h-84.97c-12.875-45.116-54.412-78.148-103.661-78.148-50.225 0-92.429 34.353-104.394 80.843h-407.606c-14.882 0-26.947 12.065-26.947 26.947zM646.737 398.789c29.766 0 53.895 24.13 53.895 53.895s-24.129 53.895-53.895 53.895c-29.766 0-53.895-24.129-53.895-53.895s24.129-53.895 53.895-53.895zM107.789 180.515c0-14.88 12.065-26.947 26.947-26.947h84.969c12.877-45.115 54.412-78.147 103.662-78.147s90.786 33.032 103.662 78.147h408.338c14.88 0 26.947 12.067 26.947 26.947 0 14.886-12.067 26.947-26.947 26.947h-406.95c-11.002 47.853-53.859 83.537-105.050 83.537s-94.048-35.684-105.050-83.537h-83.582c-14.882 0-26.947-12.062-26.947-26.947zM377.263 183.21c0-29.766-24.13-53.895-53.895-53.895s-53.895 24.129-53.895 53.895c0 29.766 24.13 53.895 53.895 53.895s53.895-24.129 53.895-53.895z" />
<glyph unicode="&#xe9d6;" glyph-name="Rain" data-tags="Rain" d="M755.911 631.822c-22.568 122.311-123.119 214.4-243.911 214.4-95.905 0-179.2-58.311-220.682-143.289-99.887-11.733-177.541-102.044-177.541-212.267 0-117.692 89.268-213.333 199.111-213.333h431.406c91.591 0 165.928 79.644 165.928 177.778 0 93.867-68.028 169.956-154.311 176.711zM707.021 622.086l7.174-38.861 37.973-2.974c59.654-4.671 101.166-57.628 101.166-125.14 0-71.083-51.109-120.889-113.778-120.889h-426.667c-80.919 0-142.222 65.806-142.222 156.444 0 84.797 52.365 152.199 126.244 160.877l26.664 3.132 12.138 24.865c33.622 68.877 100.471 109.793 176.287 109.793 95.425 0 176.668-67.748 195.021-167.247zM654.222 220.444c-15.707 0-28.444-12.737-28.444-28.444s12.737-28.444 28.444-28.444c15.707 0 28.444 12.737 28.444 28.444s-12.737 28.444-28.444 28.444zM455.111 192c0 15.707 12.735 28.444 28.444 28.444s28.444-12.737 28.444-28.444v-56.889c0-15.707-12.735-28.444-28.444-28.444s-28.444 12.737-28.444 28.444v56.889zM312.889 220.444c15.709 0 28.444-12.737 28.444-28.444v-113.778c0-15.707-12.735-28.444-28.444-28.444s-28.444 12.737-28.444 28.444v113.778c0 15.707 12.735 28.444 28.444 28.444z" />
</font>
</defs>
</svg>
